<?xml version="1.0" encoding="UTF-8" standalone="no"?>
<!-- Created with Inkscape (http://www.inkscape.org/) -->
<svg
   xmlns:dc="http://purl.org/dc/elements/1.1/"
   xmlns:cc="http://web.resource.org/cc/"
   xmlns:rdf="http://www.w3.org/1999/02/22-rdf-syntax-ns#"
   xmlns:svg="http://www.w3.org/2000/svg"
   xmlns="http://www.w3.org/2000/svg"
   xmlns:xlink="http://www.w3.org/1999/xlink"
   xmlns:sodipodi="http://sodipodi.sourceforge.net/DTD/sodipodi-0.dtd"
   xmlns:inkscape="http://www.inkscape.org/namespaces/inkscape"
   width="777"
   height="200"
   id="svg2"
   sodipodi:version="0.32"
   inkscape:version="0.45.1"
   version="1.0"
   sodipodi:docbase="/home/danigm/fed+ssh/ssh"
   sodipodi:docname="cabecera.svg"
   inkscape:output_extension="org.inkscape.output.svg.inkscape">
  <defs
     id="defs4">
    <filter
       inkscape:collect="always"
       id="filter3258">
      <feGaussianBlur
         inkscape:collect="always"
         stdDeviation="3.7198535"
         id="feGaussianBlur3260" />
    </filter>
  </defs>
  <sodipodi:namedview
     id="base"
     pagecolor="#ffffff"
     bordercolor="#666666"
     borderopacity="1.0"
     inkscape:pageopacity="0.0"
     inkscape:pageshadow="2"
     inkscape:zoom="1.2046332"
     inkscape:cx="388.5"
     inkscape:cy="100"
     inkscape:document-units="px"
     inkscape:current-layer="layer1"
     width="777px"
     height="200px"
     inkscape:window-width="1022"
     inkscape:window-height="713"
     inkscape:window-x="0"
     inkscape:window-y="25" />
  <metadata
     id="metadata7">
    <rdf:RDF>
      <cc:Work
         rdf:about="">
        <dc:format>image/svg+xml</dc:format>
        <dc:type
           rdf:resource="http://purl.org/dc/dcmitype/StillImage" />
      </cc:Work>
    </rdf:RDF>
  </metadata>
  <g
     inkscape:label="Capa 1"
     inkscape:groupmode="layer"
     id="layer1">
    <path
       style="fill:#000000;fill-opacity:0.75454545;filter:url(#filter3258)"
       d="M 21.171142,181.12264 L 19.298542,179.25003 L 19.298542,97.598851 L 19.298542,15.947668 L 21.205272,14.040943 C 22.910952,12.335256 23.514262,12.178893 26.927232,12.557937 C 30.539232,12.959086 116.86587,20.480329 210.892,28.585941 C 251.08546,32.050861 253.79375,32.372561 255.00648,33.826061 C 256.21332,35.272491 256.29854,39.267111 256.29854,94.391781 L 256.29854,153.40893 L 254.63733,155.03887 C 253.09502,156.55215 249.77881,157.02978 208.30789,161.71167 C 126.72078,170.92249 28.565752,182.13972 25.785632,182.57044 C 23.509492,182.92307 22.725652,182.67715 21.171142,181.12264 z M 31.480782,178.4446 C 31.229812,178.03852 29.964302,177.7394 28.668522,177.77987 C 26.418592,177.85015 26.395632,177.88007 28.158352,178.4446 C 30.809512,179.29365 32.005522,179.29365 31.480782,178.4446 z M 38.125642,177.70628 C 37.874672,177.3002 36.609162,177.00108 35.313382,177.04156 C 33.063452,177.11184 33.040492,177.14175 34.803212,177.70628 C 37.454372,178.55533 38.650382,178.55533 38.125642,177.70628 z M 23.543612,92.246051 C 23.432412,76.510661 23.341432,89.385071 23.341432,120.85585 C 23.341432,152.32662 23.432412,165.20103 23.543612,149.46564 C 23.654812,133.73025 23.654812,107.98144 23.543612,92.246051 z M 44.401342,176.96796 C 44.401342,176.56189 43.321552,176.26277 42.001812,176.30324 C 39.728332,176.37297 39.699242,176.40789 41.448072,176.96796 C 44.053452,177.80235 44.401342,177.80235 44.401342,176.96796 z M 51.046202,176.22964 C 51.046202,175.82357 49.966412,175.52445 48.646672,175.56492 C 46.373192,175.63465 46.344102,175.66957 48.092932,176.22964 C 50.698312,177.06403 51.046202,177.06403 51.046202,176.22964 z M 57.691062,175.49133 C 57.691062,175.08525 56.777402,174.77636 55.660692,174.80491 C 53.861522,174.85089 53.798472,174.92905 55.106952,175.49133 C 57.123582,176.3579 57.691062,176.3579 57.691062,175.49133 z M 64.335922,174.75301 C 64.335922,174.34693 63.422252,174.03805 62.305552,174.06659 C 60.506382,174.11257 60.443332,174.19074 61.751812,174.75301 C 63.768442,175.61958 64.335922,175.61958 64.335922,174.75301 z M 70.980782,174.01469 C 70.980782,173.60862 70.067112,173.29973 68.950412,173.32827 C 67.151242,173.37425 67.088192,173.45242 68.396672,174.01469 C 70.413302,174.88126 70.980782,174.88126 70.980782,174.01469 z M 77.625642,173.27637 C 77.625642,172.8703 76.711972,172.56141 75.595272,172.58995 C 73.796102,172.63594 73.733052,172.7141 75.041532,173.27637 C 77.058162,174.14295 77.625642,174.14295 77.625642,173.27637 z M 84.270502,172.53806 C 84.270502,172.13198 83.356832,171.82309 82.240132,171.85164 C 80.440962,171.89762 80.377912,171.97578 81.686392,172.53806 C 83.703022,173.40463 84.270502,173.40463 84.270502,172.53806 z M 90.915362,171.79974 C 90.915362,171.39367 90.001692,171.08478 88.884992,171.11332 C 87.085822,171.1593 87.022772,171.23747 88.331252,171.79974 C 90.347882,172.66631 90.915362,172.66631 90.915362,171.79974 z M 97.56022,171.06142 C 97.56022,170.65535 96.64655,170.34646 95.52985,170.375 C 93.730692,170.42098 93.667632,170.49915 94.97611,171.06142 C 96.99274,171.92799 97.56022,171.92799 97.56022,171.06142 z M 104.20508,170.32311 C 104.20508,169.91703 103.29141,169.60814 102.17471,169.63668 C 100.37555,169.68267 100.31249,169.76083 101.62097,170.32311 C 103.6376,171.18968 104.20508,171.18968 104.20508,170.32311 z M 110.84994,169.58479 C 110.84994,169.17871 109.93627,168.85156 108.81957,168.85777 C 107.2374,168.86659 107.03367,169.02708 107.89667,169.58479 C 109.34121,170.51832 110.84994,170.51832 110.84994,169.58479 z M 117.4948,168.84647 C 117.4948,168.4404 116.58113,168.11324 115.46443,168.11946 C 113.88226,168.12827 113.67853,168.28876 114.54153,168.84647 C 115.98607,169.78001 117.4948,169.78001 117.4948,168.84647 z M 124.13966,168.10815 C 124.13966,167.70208 123.22599,167.37492 122.10929,167.38114 C 120.52712,167.38996 120.32339,167.55044 121.18639,168.10815 C 122.63093,169.04169 124.13966,169.04169 124.13966,168.10815 z M 130.78452,167.36984 C 130.78452,166.96376 129.87085,166.63661 128.75415,166.64282 C 127.17198,166.65164 126.96825,166.81213 127.83125,167.36984 C 129.27579,168.30337 130.78452,168.30337 130.78452,167.36984 z M 137.42938,166.63152 C 137.42938,166.22544 136.51571,165.89829 135.39901,165.90451 C 133.81684,165.91332 133.61311,166.07381 134.47611,166.63152 C 135.92065,167.56505 137.42938,167.56505 137.42938,166.63152 z M 143.70508,165.8932 C 143.96842,165.46712 143.28431,165.15967 142.08744,165.16619 C 140.47709,165.17497 140.26105,165.33748 141.12097,165.8932 C 142.53949,166.80992 143.13852,166.80992 143.70508,165.8932 z M 150.34994,165.15488 C 150.61328,164.7288 149.92917,164.42135 148.7323,164.42787 C 147.12195,164.43665 146.90591,164.59916 147.76583,165.15488 C 149.18435,166.0716 149.78338,166.0716 150.34994,165.15488 z M 156.9948,164.41657 C 157.25814,163.99048 156.57403,163.68303 155.37716,163.68955 C 153.76681,163.69833 153.55077,163.86084 154.41069,164.41657 C 155.82921,165.33328 156.42824,165.33328 156.9948,164.41657 z M 163.63966,163.67825 C 163.903,163.25217 163.21889,162.94472 162.02202,162.95124 C 160.41167,162.96001 160.19563,163.12253 161.05555,163.67825 C 162.47407,164.59497 163.0731,164.59497 163.63966,163.67825 z M 34.091832,50.709341 C 35.517532,50.372781 35.910692,49.808391 35.910692,48.098301 C 35.910692,46.252481 35.427652,45.692271 32.772842,44.459111 C 30.776402,43.531771 29.634992,42.516211 29.634992,41.667251 C 29.634992,39.729911 31.571562,39.288711 33.765502,40.726231 C 35.837842,42.084081 36.709482,41.825471 36.029852,40.054391 C 35.781792,39.407971 35.115362,39.112511 34.466762,39.361401 C 33.727722,39.644991 33.094912,39.193141 32.639812,38.056891 C 32.256862,37.100781 31.922482,36.680491 31.896742,37.122901 C 31.871002,37.565311 31.019332,38.305731 30.004152,38.768281 C 28.626542,39.395961 28.158352,40.176641 28.158352,41.846041 C 28.158352,43.759111 28.577502,44.250511 31.054652,45.241671 C 35.524912,47.030311 35.978302,49.977381 31.783202,49.977381 C 30.513572,49.977381 29.409532,49.510621 29.163672,48.869911 C 28.542662,47.251591 27.420042,47.517331 27.420042,49.282641 C 27.420042,50.118751 27.722302,50.616041 28.091732,50.387721 C 29.414262,49.570351 31.112952,50.908741 31.185222,52.825071 L 31.258822,54.776451 L 31.765892,52.957581 C 32.072582,51.857481 32.991722,50.969041 34.091832,50.709341 z M 92.392002,53.668971 C 92.392002,53.262901 92.059752,52.930651 91.653682,52.930651 C 91.247612,52.930651 90.915362,51.291831 90.915362,49.288821 C 90.915362,46.295421 90.652452,45.563541 89.438732,45.178321 C 88.626582,44.920561 87.257142,44.933401 86.395542,45.206861 C 84.963582,45.661341 84.855692,45.475311 85.139812,43.041661 C 85.395052,40.855351 85.213092,40.379261 84.122252,40.379261 C 83.391642,40.379261 82.793872,40.711501 82.793872,41.117581 C 82.793872,41.523651 83.126112,41.855891 83.532182,41.855891 C 83.954082,41.855891 84.270502,44.070851 84.270502,47.024111 C 84.270502,49.977381 83.954082,52.192341 83.532182,52.192341 C 83.126112,52.192341 82.793872,52.524581 82.793872,52.930651 C 82.793872,53.336731 83.624472,53.668971 84.639662,53.668971 C 85.654852,53.668971 86.485462,53.336731 86.485462,52.930651 C 86.485462,52.524581 86.153212,52.192341 85.747142,52.192341 C 84.705482,52.192341 84.825732,47.502531 85.894802,46.433461 C 87.145592,45.182671 89.198672,45.333611 89.728892,46.715341 C 90.536322,48.819451 90.222902,52.930091 89.254152,52.941961 C 88.638882,52.949501 88.700412,53.191831 89.438732,53.668971 C 90.883272,54.602511 92.392002,54.602511 92.392002,53.668971 z M 78.206512,51.875021 C 79.815252,50.355811 78.419692,48.527111 75.266842,48.022951 C 71.897062,47.484101 70.908532,45.960801 72.918552,44.404301 C 74.207792,43.405961 74.176012,43.376071 72.457422,43.970611 C 71.184182,44.411081 70.611622,45.154451 70.611622,46.367071 C 70.611622,47.839161 71.121822,48.232611 73.749472,48.786931 C 75.994292,49.260481 76.887332,49.816781 76.887332,50.741611 C 76.887332,53.234901 73.128122,53.247991 71.188842,50.761461 C 70.407942,49.760191 70.286332,49.832861 70.265952,51.313011 C 70.253032,52.250641 70.491652,52.873641 70.796202,52.697451 C 71.100762,52.521261 72.014432,52.641231 72.826582,52.964051 C 74.526502,53.639741 76.831982,53.173061 78.206512,51.875021 z M 64.205522,51.903771 C 66.752062,50.329921 64.151782,47.024111 60.367292,47.024111 C 59.349372,47.024111 58.302202,46.677321 58.040232,46.253461 C 57.328632,45.102061 59.229142,43.198701 60.578042,43.711831 C 61.426372,44.034531 61.529262,43.933891 60.949142,43.348831 C 59.713822,42.103001 56.214432,43.697991 56.214432,45.506861 C 56.214432,46.628011 57.051362,47.223251 59.721442,48.001101 C 61.721182,48.583661 63.325822,49.518111 63.455012,50.175311 C 63.795562,51.907661 60.877212,52.514751 58.788372,51.146091 C 56.526612,49.664131 56.214432,49.680201 56.214432,51.278631 C 56.214432,52.351191 56.840302,52.567651 59.775622,52.510281 C 61.734272,52.471991 63.727732,52.199061 64.205522,51.903771 z M 49.870612,47.024111 C 52.353792,47.024111 51.501762,45.583371 47.526622,43.060571 C 45.202932,41.585851 42.865042,40.379261 42.331332,40.379261 C 40.632132,40.379261 41.975652,41.504771 45.829532,43.309831 C 47.886552,44.273291 49.569572,45.256261 49.569572,45.494221 C 49.569572,45.732171 47.852612,46.590161 45.754102,47.400871 C 43.655592,48.211581 41.792692,49.312681 41.614332,49.847771 C 41.411032,50.457681 42.687692,50.112411 45.036102,48.922391 C 47.096432,47.878341 49.271962,47.024111 49.870612,47.024111 z M 78.363962,45.362901 C 78.363962,44.855311 77.527262,44.440001 76.504622,44.440001 C 74.836222,44.440001 74.774892,44.534781 75.907422,45.362901 C 76.601592,45.870491 77.438302,46.285801 77.766762,46.285801 C 78.095222,46.285801 78.363962,45.870491 78.363962,45.362901 z M 64.335922,44.463181 C 64.335922,43.804531 63.902832,43.545071 63.232692,43.802221 C 62.625912,44.035071 62.313272,44.523001 62.537942,44.886531 C 63.182212,45.928971 64.335922,45.657321 64.335922,44.463181 z M 160.80152,31.320821 C 160.59928,30.820961 160.44612,31.408701 160.46117,32.626931 C 160.47621,33.845151 160.64169,34.254131 160.82888,33.535771 C 161.01607,32.817411 161.00376,31.820681 160.80152,31.320821 z M 163.06199,29.499231 C 162.89228,28.376941 162.7489,29.119921 162.74335,31.150291 C 162.73781,33.180661 162.87666,34.098901 163.05191,33.190821 C 163.22716,32.282731 163.2317,30.621521 163.06199,29.499231 z M 152.70468,30.227401 C 152.51897,29.516761 152.36703,30.098191 152.36703,31.519451 C 152.36703,32.940711 152.51897,33.522141 152.70468,32.811511 C 152.89038,32.100881 152.89038,30.938031 152.70468,30.227401 z M 156.3763,31.334871 C 156.17148,30.827281 156.0039,31.242581 156.0039,32.257771 C 156.0039,33.272951 156.17148,33.688261 156.3763,33.180661 C 156.58111,32.673071 156.58111,31.842461 156.3763,31.334871 z M 139.41496,29.489081 C 139.22925,28.778451 139.07731,29.359871 139.07731,30.781131 C 139.07731,32.202391 139.22925,32.783821 139.41496,32.073191 C 139.60066,31.362561 139.60066,30.199711 139.41496,29.489081 z M 143.10655,29.489081 C 142.92084,28.778451 142.7689,29.359871 142.7689,30.781131 C 142.7689,32.202391 142.92084,32.783821 143.10655,32.073191 C 143.29225,31.362561 143.29225,30.199711 143.10655,29.489081 z M 146.03517,29.844181 C 145.83292,29.344321 145.67976,29.932071 145.69481,31.150291 C 145.70986,32.368521 145.87533,32.777501 146.06252,32.059141 C 146.24972,31.340781 146.23741,30.344051 146.03517,29.844181 z M 130.56726,27.643281 C 130.39128,26.729621 130.24729,27.477161 130.24729,29.304501 C 130.24729,31.131831 130.39128,31.879381 130.56726,30.965711 C 130.74324,30.052041 130.74324,28.556951 130.56726,27.643281 z M 133.44554,28.766141 C 133.2002,28.520811 133.02571,28.956871 133.05776,29.735181 C 133.09319,30.595281 133.26814,30.770231 133.50383,30.181251 C 133.7171,29.648281 133.69088,29.011481 133.44554,28.766141 z M 30.742472,24.136278 C 28.712772,23.264088 27.547052,23.264088 28.896672,24.136278 C 29.505782,24.529917 30.502512,24.83372 31.111622,24.811397 C 31.841862,24.784635 31.716112,24.554669 30.742472,24.136278 z M 30.742472,21.921326 C 28.710262,21.048057 27.987802,21.048057 28.527512,21.921326 C 28.778482,22.327401 29.711762,22.636292 30.601462,22.607751 C 32.161062,22.55772 32.166122,22.533089 30.742472,21.921326 z M 30.912992,19.933044 C 30.194632,19.745849 29.197912,19.75816 28.698042,19.960402 C 28.198172,20.162644 28.785922,20.315804 30.004152,20.300757 C 31.222372,20.285711 31.631352,20.12024 30.912992,19.933044 z "
       id="path2220" />
    <image
       y="9.1533298"
       x="23.298538"
       id="image2215"
       height="170.5513"
       width="237"
       sodipodi:absref="/home/danigm/fed+ssh/ssh/term-perspectiva.png"
       xlink:href="term-perspectiva.png" />
  </g>
</svg>
