<?xml version="1.0" encoding="UTF-8" standalone="no"?>
<!-- Created with Inkscape (http://www.inkscape.org/) -->
<svg
   xmlns:dc="http://purl.org/dc/elements/1.1/"
   xmlns:cc="http://web.resource.org/cc/"
   xmlns:rdf="http://www.w3.org/1999/02/22-rdf-syntax-ns#"
   xmlns:svg="http://www.w3.org/2000/svg"
   xmlns="http://www.w3.org/2000/svg"
   xmlns:xlink="http://www.w3.org/1999/xlink"
   xmlns:sodipodi="http://sodipodi.sourceforge.net/DTD/sodipodi-0.dtd"
   xmlns:inkscape="http://www.inkscape.org/namespaces/inkscape"
   width="777"
   height="160"
   id="svg2"
   sodipodi:version="0.32"
   inkscape:version="0.45.1"
   version="1.0"
   sodipodi:docbase="/home/danigm/Documentos/Projects/fed+ssh/ssh"
   sodipodi:docname="cabecera.svg"
   inkscape:output_extension="org.inkscape.output.svg.inkscape">
  <defs
     id="defs4">
    <linearGradient
       inkscape:collect="always"
       id="linearGradient3206">
      <stop
         style="stop-color:#ffffff;stop-opacity:1"
         offset="0"
         id="stop3208" />
      <stop
         style="stop-color:#000000;stop-opacity:1"
         offset="1"
         id="stop3210" />
    </linearGradient>
    <linearGradient
       inkscape:collect="always"
       id="linearGradient3181">
      <stop
         style="stop-color:#ffffff;stop-opacity:1;"
         offset="0"
         id="stop3183" />
      <stop
         style="stop-color:#ffffff;stop-opacity:0;"
         offset="1"
         id="stop3185" />
    </linearGradient>
    <linearGradient
       inkscape:collect="always"
       id="linearGradient3149">
      <stop
         style="stop-color:#000000;stop-opacity:1;"
         offset="0"
         id="stop3151" />
      <stop
         style="stop-color:#000000;stop-opacity:0;"
         offset="1"
         id="stop3153" />
    </linearGradient>
    <filter
       inkscape:collect="always"
       id="filter3258">
      <feGaussianBlur
         inkscape:collect="always"
         stdDeviation="3.7198535"
         id="feGaussianBlur3260" />
    </filter>
    <linearGradient
       inkscape:collect="always"
       xlink:href="#linearGradient3149"
       id="linearGradient3155"
       x1="256.77682"
       y1="53.304722"
       x2="256.77682"
       y2="87.8125"
       gradientUnits="userSpaceOnUse" />
    <linearGradient
       inkscape:collect="always"
       xlink:href="#linearGradient3181"
       id="linearGradient3187"
       x1="412.15344"
       y1="60.222019"
       x2="412.15344"
       y2="91.159744"
       gradientUnits="userSpaceOnUse" />
    <linearGradient
       inkscape:collect="always"
       xlink:href="#linearGradient3149"
       id="linearGradient3195"
       gradientUnits="userSpaceOnUse"
       x1="256.77682"
       y1="53.304722"
       x2="256.77682"
       y2="87.8125" />
    <linearGradient
       inkscape:collect="always"
       xlink:href="#linearGradient3181"
       id="linearGradient3197"
       gradientUnits="userSpaceOnUse"
       x1="412.15344"
       y1="60.222019"
       x2="412.15344"
       y2="91.159744"
       gradientTransform="translate(0,-178.55938)" />
    <linearGradient
       inkscape:collect="always"
       xlink:href="#linearGradient3206"
       id="linearGradient3212"
       x1="258.06592"
       y1="86.629036"
       x2="258.06592"
       y2="116.92234"
       gradientUnits="userSpaceOnUse" />
    <linearGradient
       inkscape:collect="always"
       xlink:href="#linearGradient3206"
       id="linearGradient4190"
       gradientUnits="userSpaceOnUse"
       x1="258.06592"
       y1="26.259212"
       x2="258.06592"
       y2="110.3596" />
    <linearGradient
       inkscape:collect="always"
       xlink:href="#linearGradient3206"
       id="linearGradient4196"
       gradientUnits="userSpaceOnUse"
       x1="258.06592"
       y1="26.259212"
       x2="258.06592"
       y2="110.3596" />
    <mask
       maskUnits="userSpaceOnUse"
       id="mask4192">
      <rect
         style="opacity:1;fill:url(#linearGradient4196);fill-opacity:1;fill-rule:nonzero;stroke:none;stroke-width:1.39999998;stroke-linecap:butt;stroke-linejoin:round;stroke-miterlimit:4;stroke-dasharray:none;stroke-opacity:1"
         id="rect4194"
         width="516.13184"
         height="47.460396"
         x="235.07727"
         y="86.62941" />
    </mask>
  </defs>
  <sodipodi:namedview
     id="base"
     pagecolor="#ffffff"
     bordercolor="#666666"
     borderopacity="1.0"
     inkscape:pageopacity="0.0"
     inkscape:pageshadow="2"
     inkscape:zoom="1.1730648"
     inkscape:cx="388.09375"
     inkscape:cy="18.75"
     inkscape:document-units="px"
     inkscape:current-layer="layer1"
     width="777px"
     height="160px"
     inkscape:window-width="1022"
     inkscape:window-height="713"
     inkscape:window-x="10"
     inkscape:window-y="68" />
  <metadata
     id="metadata7">
    <rdf:RDF>
      <cc:Work
         rdf:about="">
        <dc:format>image/svg+xml</dc:format>
        <dc:type
           rdf:resource="http://purl.org/dc/dcmitype/StillImage" />
      </cc:Work>
    </rdf:RDF>
  </metadata>
  <g
     inkscape:label="Capa 1"
     inkscape:groupmode="layer"
     id="layer1">
    <path
       style="opacity:1;fill:#ffffff;fill-opacity:1;fill-rule:nonzero;stroke:none;stroke-width:1.39999998;stroke-linecap:butt;stroke-linejoin:round;stroke-miterlimit:4;stroke-dasharray:none;stroke-opacity:1"
       d="M -9.15625,104.15625 L -9.15625,178.34375 L 785.34375,178.34375 L 785.34375,104.15625 L 777,104.15625 L 777,120 L 0,120 L 0,104.15625 L -9.15625,104.15625 z "
       id="rect4198" />
    <g
       id="g2161"
       transform="translate(-9.1314103,-5.8108975)">
      <path
         transform="matrix(0.8708592,0,0,0.8708592,7.8811855,2.8423247)"
         id="path2220"
         d="M 21.171142,181.12264 L 19.298542,179.25003 L 19.298542,97.598851 L 19.298542,15.947668 L 21.205272,14.040943 C 22.910952,12.335256 23.514262,12.178893 26.927232,12.557937 C 30.539232,12.959086 116.86587,20.480329 210.892,28.585941 C 251.08546,32.050861 253.79375,32.372561 255.00648,33.826061 C 256.21332,35.272491 256.29854,39.267111 256.29854,94.391781 L 256.29854,153.40893 L 254.63733,155.03887 C 253.09502,156.55215 249.77881,157.02978 208.30789,161.71167 C 126.72078,170.92249 28.565752,182.13972 25.785632,182.57044 C 23.509492,182.92307 22.725652,182.67715 21.171142,181.12264 z M 31.480782,178.4446 C 31.229812,178.03852 29.964302,177.7394 28.668522,177.77987 C 26.418592,177.85015 26.395632,177.88007 28.158352,178.4446 C 30.809512,179.29365 32.005522,179.29365 31.480782,178.4446 z M 38.125642,177.70628 C 37.874672,177.3002 36.609162,177.00108 35.313382,177.04156 C 33.063452,177.11184 33.040492,177.14175 34.803212,177.70628 C 37.454372,178.55533 38.650382,178.55533 38.125642,177.70628 z M 23.543612,92.246051 C 23.432412,76.510661 23.341432,89.385071 23.341432,120.85585 C 23.341432,152.32662 23.432412,165.20103 23.543612,149.46564 C 23.654812,133.73025 23.654812,107.98144 23.543612,92.246051 z M 44.401342,176.96796 C 44.401342,176.56189 43.321552,176.26277 42.001812,176.30324 C 39.728332,176.37297 39.699242,176.40789 41.448072,176.96796 C 44.053452,177.80235 44.401342,177.80235 44.401342,176.96796 z M 51.046202,176.22964 C 51.046202,175.82357 49.966412,175.52445 48.646672,175.56492 C 46.373192,175.63465 46.344102,175.66957 48.092932,176.22964 C 50.698312,177.06403 51.046202,177.06403 51.046202,176.22964 z M 57.691062,175.49133 C 57.691062,175.08525 56.777402,174.77636 55.660692,174.80491 C 53.861522,174.85089 53.798472,174.92905 55.106952,175.49133 C 57.123582,176.3579 57.691062,176.3579 57.691062,175.49133 z M 64.335922,174.75301 C 64.335922,174.34693 63.422252,174.03805 62.305552,174.06659 C 60.506382,174.11257 60.443332,174.19074 61.751812,174.75301 C 63.768442,175.61958 64.335922,175.61958 64.335922,174.75301 z M 70.980782,174.01469 C 70.980782,173.60862 70.067112,173.29973 68.950412,173.32827 C 67.151242,173.37425 67.088192,173.45242 68.396672,174.01469 C 70.413302,174.88126 70.980782,174.88126 70.980782,174.01469 z M 77.625642,173.27637 C 77.625642,172.8703 76.711972,172.56141 75.595272,172.58995 C 73.796102,172.63594 73.733052,172.7141 75.041532,173.27637 C 77.058162,174.14295 77.625642,174.14295 77.625642,173.27637 z M 84.270502,172.53806 C 84.270502,172.13198 83.356832,171.82309 82.240132,171.85164 C 80.440962,171.89762 80.377912,171.97578 81.686392,172.53806 C 83.703022,173.40463 84.270502,173.40463 84.270502,172.53806 z M 90.915362,171.79974 C 90.915362,171.39367 90.001692,171.08478 88.884992,171.11332 C 87.085822,171.1593 87.022772,171.23747 88.331252,171.79974 C 90.347882,172.66631 90.915362,172.66631 90.915362,171.79974 z M 97.56022,171.06142 C 97.56022,170.65535 96.64655,170.34646 95.52985,170.375 C 93.730692,170.42098 93.667632,170.49915 94.97611,171.06142 C 96.99274,171.92799 97.56022,171.92799 97.56022,171.06142 z M 104.20508,170.32311 C 104.20508,169.91703 103.29141,169.60814 102.17471,169.63668 C 100.37555,169.68267 100.31249,169.76083 101.62097,170.32311 C 103.6376,171.18968 104.20508,171.18968 104.20508,170.32311 z M 110.84994,169.58479 C 110.84994,169.17871 109.93627,168.85156 108.81957,168.85777 C 107.2374,168.86659 107.03367,169.02708 107.89667,169.58479 C 109.34121,170.51832 110.84994,170.51832 110.84994,169.58479 z M 117.4948,168.84647 C 117.4948,168.4404 116.58113,168.11324 115.46443,168.11946 C 113.88226,168.12827 113.67853,168.28876 114.54153,168.84647 C 115.98607,169.78001 117.4948,169.78001 117.4948,168.84647 z M 124.13966,168.10815 C 124.13966,167.70208 123.22599,167.37492 122.10929,167.38114 C 120.52712,167.38996 120.32339,167.55044 121.18639,168.10815 C 122.63093,169.04169 124.13966,169.04169 124.13966,168.10815 z M 130.78452,167.36984 C 130.78452,166.96376 129.87085,166.63661 128.75415,166.64282 C 127.17198,166.65164 126.96825,166.81213 127.83125,167.36984 C 129.27579,168.30337 130.78452,168.30337 130.78452,167.36984 z M 137.42938,166.63152 C 137.42938,166.22544 136.51571,165.89829 135.39901,165.90451 C 133.81684,165.91332 133.61311,166.07381 134.47611,166.63152 C 135.92065,167.56505 137.42938,167.56505 137.42938,166.63152 z M 143.70508,165.8932 C 143.96842,165.46712 143.28431,165.15967 142.08744,165.16619 C 140.47709,165.17497 140.26105,165.33748 141.12097,165.8932 C 142.53949,166.80992 143.13852,166.80992 143.70508,165.8932 z M 150.34994,165.15488 C 150.61328,164.7288 149.92917,164.42135 148.7323,164.42787 C 147.12195,164.43665 146.90591,164.59916 147.76583,165.15488 C 149.18435,166.0716 149.78338,166.0716 150.34994,165.15488 z M 156.9948,164.41657 C 157.25814,163.99048 156.57403,163.68303 155.37716,163.68955 C 153.76681,163.69833 153.55077,163.86084 154.41069,164.41657 C 155.82921,165.33328 156.42824,165.33328 156.9948,164.41657 z M 163.63966,163.67825 C 163.903,163.25217 163.21889,162.94472 162.02202,162.95124 C 160.41167,162.96001 160.19563,163.12253 161.05555,163.67825 C 162.47407,164.59497 163.0731,164.59497 163.63966,163.67825 z M 34.091832,50.709341 C 35.517532,50.372781 35.910692,49.808391 35.910692,48.098301 C 35.910692,46.252481 35.427652,45.692271 32.772842,44.459111 C 30.776402,43.531771 29.634992,42.516211 29.634992,41.667251 C 29.634992,39.729911 31.571562,39.288711 33.765502,40.726231 C 35.837842,42.084081 36.709482,41.825471 36.029852,40.054391 C 35.781792,39.407971 35.115362,39.112511 34.466762,39.361401 C 33.727722,39.644991 33.094912,39.193141 32.639812,38.056891 C 32.256862,37.100781 31.922482,36.680491 31.896742,37.122901 C 31.871002,37.565311 31.019332,38.305731 30.004152,38.768281 C 28.626542,39.395961 28.158352,40.176641 28.158352,41.846041 C 28.158352,43.759111 28.577502,44.250511 31.054652,45.241671 C 35.524912,47.030311 35.978302,49.977381 31.783202,49.977381 C 30.513572,49.977381 29.409532,49.510621 29.163672,48.869911 C 28.542662,47.251591 27.420042,47.517331 27.420042,49.282641 C 27.420042,50.118751 27.722302,50.616041 28.091732,50.387721 C 29.414262,49.570351 31.112952,50.908741 31.185222,52.825071 L 31.258822,54.776451 L 31.765892,52.957581 C 32.072582,51.857481 32.991722,50.969041 34.091832,50.709341 z M 92.392002,53.668971 C 92.392002,53.262901 92.059752,52.930651 91.653682,52.930651 C 91.247612,52.930651 90.915362,51.291831 90.915362,49.288821 C 90.915362,46.295421 90.652452,45.563541 89.438732,45.178321 C 88.626582,44.920561 87.257142,44.933401 86.395542,45.206861 C 84.963582,45.661341 84.855692,45.475311 85.139812,43.041661 C 85.395052,40.855351 85.213092,40.379261 84.122252,40.379261 C 83.391642,40.379261 82.793872,40.711501 82.793872,41.117581 C 82.793872,41.523651 83.126112,41.855891 83.532182,41.855891 C 83.954082,41.855891 84.270502,44.070851 84.270502,47.024111 C 84.270502,49.977381 83.954082,52.192341 83.532182,52.192341 C 83.126112,52.192341 82.793872,52.524581 82.793872,52.930651 C 82.793872,53.336731 83.624472,53.668971 84.639662,53.668971 C 85.654852,53.668971 86.485462,53.336731 86.485462,52.930651 C 86.485462,52.524581 86.153212,52.192341 85.747142,52.192341 C 84.705482,52.192341 84.825732,47.502531 85.894802,46.433461 C 87.145592,45.182671 89.198672,45.333611 89.728892,46.715341 C 90.536322,48.819451 90.222902,52.930091 89.254152,52.941961 C 88.638882,52.949501 88.700412,53.191831 89.438732,53.668971 C 90.883272,54.602511 92.392002,54.602511 92.392002,53.668971 z M 78.206512,51.875021 C 79.815252,50.355811 78.419692,48.527111 75.266842,48.022951 C 71.897062,47.484101 70.908532,45.960801 72.918552,44.404301 C 74.207792,43.405961 74.176012,43.376071 72.457422,43.970611 C 71.184182,44.411081 70.611622,45.154451 70.611622,46.367071 C 70.611622,47.839161 71.121822,48.232611 73.749472,48.786931 C 75.994292,49.260481 76.887332,49.816781 76.887332,50.741611 C 76.887332,53.234901 73.128122,53.247991 71.188842,50.761461 C 70.407942,49.760191 70.286332,49.832861 70.265952,51.313011 C 70.253032,52.250641 70.491652,52.873641 70.796202,52.697451 C 71.100762,52.521261 72.014432,52.641231 72.826582,52.964051 C 74.526502,53.639741 76.831982,53.173061 78.206512,51.875021 z M 64.205522,51.903771 C 66.752062,50.329921 64.151782,47.024111 60.367292,47.024111 C 59.349372,47.024111 58.302202,46.677321 58.040232,46.253461 C 57.328632,45.102061 59.229142,43.198701 60.578042,43.711831 C 61.426372,44.034531 61.529262,43.933891 60.949142,43.348831 C 59.713822,42.103001 56.214432,43.697991 56.214432,45.506861 C 56.214432,46.628011 57.051362,47.223251 59.721442,48.001101 C 61.721182,48.583661 63.325822,49.518111 63.455012,50.175311 C 63.795562,51.907661 60.877212,52.514751 58.788372,51.146091 C 56.526612,49.664131 56.214432,49.680201 56.214432,51.278631 C 56.214432,52.351191 56.840302,52.567651 59.775622,52.510281 C 61.734272,52.471991 63.727732,52.199061 64.205522,51.903771 z M 49.870612,47.024111 C 52.353792,47.024111 51.501762,45.583371 47.526622,43.060571 C 45.202932,41.585851 42.865042,40.379261 42.331332,40.379261 C 40.632132,40.379261 41.975652,41.504771 45.829532,43.309831 C 47.886552,44.273291 49.569572,45.256261 49.569572,45.494221 C 49.569572,45.732171 47.852612,46.590161 45.754102,47.400871 C 43.655592,48.211581 41.792692,49.312681 41.614332,49.847771 C 41.411032,50.457681 42.687692,50.112411 45.036102,48.922391 C 47.096432,47.878341 49.271962,47.024111 49.870612,47.024111 z M 78.363962,45.362901 C 78.363962,44.855311 77.527262,44.440001 76.504622,44.440001 C 74.836222,44.440001 74.774892,44.534781 75.907422,45.362901 C 76.601592,45.870491 77.438302,46.285801 77.766762,46.285801 C 78.095222,46.285801 78.363962,45.870491 78.363962,45.362901 z M 64.335922,44.463181 C 64.335922,43.804531 63.902832,43.545071 63.232692,43.802221 C 62.625912,44.035071 62.313272,44.523001 62.537942,44.886531 C 63.182212,45.928971 64.335922,45.657321 64.335922,44.463181 z M 160.80152,31.320821 C 160.59928,30.820961 160.44612,31.408701 160.46117,32.626931 C 160.47621,33.845151 160.64169,34.254131 160.82888,33.535771 C 161.01607,32.817411 161.00376,31.820681 160.80152,31.320821 z M 163.06199,29.499231 C 162.89228,28.376941 162.7489,29.119921 162.74335,31.150291 C 162.73781,33.180661 162.87666,34.098901 163.05191,33.190821 C 163.22716,32.282731 163.2317,30.621521 163.06199,29.499231 z M 152.70468,30.227401 C 152.51897,29.516761 152.36703,30.098191 152.36703,31.519451 C 152.36703,32.940711 152.51897,33.522141 152.70468,32.811511 C 152.89038,32.100881 152.89038,30.938031 152.70468,30.227401 z M 156.3763,31.334871 C 156.17148,30.827281 156.0039,31.242581 156.0039,32.257771 C 156.0039,33.272951 156.17148,33.688261 156.3763,33.180661 C 156.58111,32.673071 156.58111,31.842461 156.3763,31.334871 z M 139.41496,29.489081 C 139.22925,28.778451 139.07731,29.359871 139.07731,30.781131 C 139.07731,32.202391 139.22925,32.783821 139.41496,32.073191 C 139.60066,31.362561 139.60066,30.199711 139.41496,29.489081 z M 143.10655,29.489081 C 142.92084,28.778451 142.7689,29.359871 142.7689,30.781131 C 142.7689,32.202391 142.92084,32.783821 143.10655,32.073191 C 143.29225,31.362561 143.29225,30.199711 143.10655,29.489081 z M 146.03517,29.844181 C 145.83292,29.344321 145.67976,29.932071 145.69481,31.150291 C 145.70986,32.368521 145.87533,32.777501 146.06252,32.059141 C 146.24972,31.340781 146.23741,30.344051 146.03517,29.844181 z M 130.56726,27.643281 C 130.39128,26.729621 130.24729,27.477161 130.24729,29.304501 C 130.24729,31.131831 130.39128,31.879381 130.56726,30.965711 C 130.74324,30.052041 130.74324,28.556951 130.56726,27.643281 z M 133.44554,28.766141 C 133.2002,28.520811 133.02571,28.956871 133.05776,29.735181 C 133.09319,30.595281 133.26814,30.770231 133.50383,30.181251 C 133.7171,29.648281 133.69088,29.011481 133.44554,28.766141 z M 30.742472,24.136278 C 28.712772,23.264088 27.547052,23.264088 28.896672,24.136278 C 29.505782,24.529917 30.502512,24.83372 31.111622,24.811397 C 31.841862,24.784635 31.716112,24.554669 30.742472,24.136278 z M 30.742472,21.921326 C 28.710262,21.048057 27.987802,21.048057 28.527512,21.921326 C 28.778482,22.327401 29.711762,22.636292 30.601462,22.607751 C 32.161062,22.55772 32.166122,22.533089 30.742472,21.921326 z M 30.912992,19.933044 C 30.194632,19.745849 29.197912,19.75816 28.698042,19.960402 C 28.198172,20.162644 28.785922,20.315804 30.004152,20.300757 C 31.222372,20.285711 31.631352,20.12024 30.912992,19.933044 z "
         style="fill:#000000;fill-opacity:0.75454544;filter:url(#filter3258)" />
      <image
         xlink:href="term-perspectiva.png"
         sodipodi:absref="/home/danigm/fed+ssh/ssh/term-perspectiva.png"
         width="206.39363"
         height="148.52617"
         id="image2215"
         x="28.170933"
         y="10.813586" />
    </g>
    <path
       sodipodi:type="inkscape:offset"
       inkscape:radius="2.5010729"
       inkscape:original="M 261.71875 55.25 C 258.69111 55.25003 256.30767 55.639456 254.5625 56.40625 C 252.83053 57.15988 251.52884 58.195946 250.65625 59.53125 C 249.79688 60.853384 249.37499 62.287289 249.375 63.78125 C 249.375 66.055297 250.21394 67.907477 251.90625 69.375 C 253.58532 70.842556 256.40386 72.020447 260.34375 72.90625 C 262.74997 73.435105 264.27642 73.998814 264.9375 74.59375 C 265.59854 75.188709 265.93748 75.87141 265.9375 76.625 C 265.93748 77.418273 265.57571 78.110586 264.875 78.71875 C 264.18749 79.313705 263.21992 79.625004 261.9375 79.625 C 260.21874 79.625005 258.89422 79.02043 257.96875 77.84375 C 257.40023 77.116597 257.02883 76.075723 256.84375 74.6875 L 248.28125 75.21875 C 248.53245 78.15384 249.62741 80.564913 251.53125 82.46875 C 253.43508 84.372588 256.83654 85.312502 261.78125 85.3125 C 264.59733 85.3125 266.93029 84.931483 268.78125 84.125 C 270.63218 83.305294 272.09374 82.104563 273.125 80.53125 C 274.15622 78.957945 274.65623 77.239182 274.65625 75.375 C 274.65622 73.788479 274.28003 72.344958 273.5 71.0625 C 272.73315 69.780069 271.48674 68.703141 269.78125 67.84375 C 268.08893 66.971175 265.2704 66.127418 261.34375 65.28125 C 259.75721 64.950742 258.76681 64.60218 258.34375 64.21875 C 257.90744 63.84858 257.6875 63.431508 257.6875 62.96875 C 257.68749 62.33416 257.93989 61.780069 258.46875 61.34375 C 258.99758 60.894257 259.79928 60.687523 260.84375 60.6875 C 262.11296 60.687524 263.09854 60.967576 263.8125 61.5625 C 264.53964 62.157472 265.02521 63.128632 265.25 64.4375 L 273.71875 63.9375 C 273.34853 60.923114 272.17545 58.718771 270.21875 57.34375 C 268.27523 55.955564 265.43387 55.250029 261.71875 55.25 z M 291.09375 55.25 C 288.06611 55.25003 285.68267 55.639456 283.9375 56.40625 C 282.20553 57.15988 280.90383 58.195946 280.03125 59.53125 C 279.17188 60.853384 278.71875 62.287289 278.71875 63.78125 C 278.71875 66.055297 279.58894 67.907477 281.28125 69.375 C 282.96032 70.842556 285.74761 72.020447 289.6875 72.90625 C 292.09372 73.435105 293.62018 73.998814 294.28125 74.59375 C 294.94229 75.188709 295.28124 75.87141 295.28125 76.625 C 295.28123 77.418273 294.95071 78.110586 294.25 78.71875 C 293.56249 79.313705 292.56367 79.625004 291.28125 79.625 C 289.56249 79.625005 288.23797 79.02043 287.3125 77.84375 C 286.74398 77.116597 286.37259 76.075723 286.1875 74.6875 L 277.625 75.21875 C 277.8762 78.15384 278.97116 80.564913 280.875 82.46875 C 282.77883 84.372588 286.21155 85.312502 291.15625 85.3125 C 293.97233 85.3125 296.30526 84.931483 298.15625 84.125 C 300.00718 83.305294 301.43749 82.104563 302.46875 80.53125 C 303.49997 78.957945 303.99998 77.239182 304 75.375 C 303.99997 73.788479 303.62378 72.344958 302.84375 71.0625 C 302.0769 69.780069 300.83049 68.703141 299.125 67.84375 C 297.43268 66.971175 294.64541 66.127418 290.71875 65.28125 C 289.13221 64.950742 288.11057 64.60218 287.6875 64.21875 C 287.25119 63.84858 287.03125 63.431508 287.03125 62.96875 C 287.03124 62.33416 287.3149 61.780069 287.84375 61.34375 C 288.37258 60.894257 289.14303 60.687523 290.1875 60.6875 C 291.45671 60.687524 292.44229 60.967576 293.15625 61.5625 C 293.88339 62.157472 294.36896 63.128632 294.59375 64.4375 L 303.0625 63.9375 C 302.69228 60.923114 301.51921 58.718771 299.5625 57.34375 C 297.61898 55.955564 294.80887 55.250029 291.09375 55.25 z M 698.5 55.25 L 695.1875 61.1875 L 699.03125 61.1875 L 705.4375 55.25 L 698.5 55.25 z M 308.59375 55.75 L 308.59375 84.84375 L 317.5625 84.84375 L 317.5625 73.0625 L 327.40625 73.0625 L 327.40625 84.84375 L 336.40625 84.84375 L 336.40625 55.75 L 327.40625 55.75 L 327.40625 65.9375 L 317.5625 65.9375 L 317.5625 55.75 L 308.59375 55.75 z M 407.46875 55.75 L 407.46875 84.84375 L 415 84.84375 L 415 81.71875 C 416.04446 83.02764 417.02044 83.93029 417.90625 84.40625 C 419.08291 85.01442 420.36657 85.312499 421.78125 85.3125 C 423.43387 85.3125 424.93268 84.890619 426.28125 84.03125 C 427.643 83.158659 428.73315 81.838936 429.5 80.09375 C 430.2668 78.335351 430.62497 76.300481 430.625 74 C 430.62497 70.549308 429.80405 67.900248 428.125 66.0625 C 426.4459 64.211567 424.31488 63.281272 421.75 63.28125 C 420.5072 63.281272 419.37498 63.514447 418.34375 63.9375 C 417.32571 64.360596 416.40021 64.997623 415.59375 65.84375 L 415.59375 55.75 L 407.46875 55.75 z M 494.46875 55.75 L 494.46875 84.84375 L 503.46875 84.84375 L 503.46875 72.9375 L 514.75 72.9375 L 514.75 67.09375 L 503.46875 67.09375 L 503.46875 62 L 516.65625 62 L 516.65625 55.75 L 494.46875 55.75 z M 560.8125 55.75 L 560.8125 65.84375 C 560.01922 64.99762 559.09371 64.360596 558.0625 63.9375 C 557.04446 63.514446 555.91225 63.281272 554.65625 63.28125 C 552.07813 63.281272 549.96034 64.211566 548.28125 66.0625 C 546.61539 67.91347 545.78126 70.603392 545.78125 74.09375 C 545.78125 77.213936 546.52406 79.849777 548.03125 82.03125 C 549.55167 84.212731 551.75603 85.312499 554.625 85.3125 C 556.05287 85.3125 557.33652 85.014419 558.5 84.40625 C 559.37258 83.943513 560.34857 83.040864 561.40625 81.71875 L 561.40625 84.84375 L 568.96875 84.84375 L 568.96875 55.75 L 560.8125 55.75 z M 674.34375 55.75 L 674.34375 61.25 L 682.40625 61.25 L 682.40625 55.75 L 674.34375 55.75 z M 365.15625 63.28125 C 362.77644 63.281272 360.88341 63.528868 359.46875 64.03125 C 358.05409 64.520451 356.93147 65.276466 356.125 66.28125 C 355.31851 67.286071 354.90625 68.486798 354.90625 69.875 C 354.90625 71.144239 355.29088 72.289683 356.03125 73.28125 C 356.78485 74.272843 357.6971 74.951937 358.78125 75.375 C 359.87859 75.784863 361.82213 76.260826 364.625 76.75 C 366.50238 77.080535 367.65744 77.337752 368.09375 77.5625 C 368.7019 77.879813 369.03122 78.324526 369.03125 78.90625 C 369.03123 79.421878 368.77523 79.875007 368.3125 80.21875 C 367.71754 80.681493 366.89662 80.906255 365.8125 80.90625 C 364.82091 80.906254 364.03243 80.691104 363.4375 80.28125 C 362.84254 79.871401 362.36176 79.201925 362.03125 78.25 L 354.03125 79 C 354.49399 81.022832 355.53006 82.590154 357.15625 83.6875 C 358.79566 84.784851 361.55891 85.312502 365.40625 85.3125 C 368.12978 85.3125 370.27044 84.986778 371.84375 84.3125 C 373.43026 83.625004 374.58532 82.712741 375.3125 81.5625 C 376.05286 80.412269 376.40623 79.216343 376.40625 78 C 376.40623 76.796888 376.07568 75.692314 375.375 74.6875 C 374.68748 73.682708 373.68387 72.917074 372.375 72.375 C 371.06609 71.832948 369.05885 71.397846 366.375 71.09375 C 364.60336 70.882226 363.46633 70.670688 362.9375 70.40625 C 362.40865 70.141843 362.12499 69.73439 362.125 69.21875 C 362.12499 68.756028 362.34014 68.379824 362.75 68.0625 C 363.17306 67.73199 363.83774 67.562516 364.75 67.5625 C 365.64902 67.562517 366.42788 67.764441 367.0625 68.1875 C 367.52522 68.504823 367.86418 69.013238 368.0625 69.6875 L 375.71875 68.9375 C 375.18988 67.562523 374.49396 66.462755 373.6875 65.65625 C 372.89421 64.849783 371.92186 64.258432 370.71875 63.875 C 369.52883 63.49161 367.66825 63.281272 365.15625 63.28125 z M 391.34375 63.28125 C 387.65505 63.281272 384.6995 64.348584 382.53125 66.4375 C 380.36299 68.513228 379.28124 71.131037 379.28125 74.34375 C 379.28125 77.794463 380.59136 80.590161 383.15625 82.71875 C 385.24518 84.437493 387.95915 85.312499 391.34375 85.3125 C 395.13819 85.3125 398.10816 84.281239 400.25 82.21875 C 402.40501 80.143043 403.49996 77.489173 403.5 74.25 C 403.49997 71.367814 402.63819 68.938707 400.90625 66.96875 C 398.75119 64.522868 395.56125 63.281272 391.34375 63.28125 z M 447.28125 63.28125 C 446.14422 63.281272 445.18628 63.587762 444.40625 64.15625 C 443.63941 64.711556 442.91464 65.724782 442.1875 67.21875 L 442.1875 63.78125 L 434.625 63.78125 L 434.625 84.84375 L 442.75 84.84375 L 442.75 77.78125 C 442.74999 74.409881 443.16707 72.104576 444 70.875 C 444.58172 70.002422 445.37979 69.562512 446.4375 69.5625 C 446.99277 69.562515 447.76681 69.75963 448.71875 70.15625 L 451.21875 64.40625 C 449.80408 63.66589 448.47114 63.281272 447.28125 63.28125 z M 464.0625 63.28125 C 460.34736 63.281272 457.45912 64.307722 455.34375 66.34375 C 453.24159 68.379815 452.18749 71.051707 452.1875 74.34375 C 452.1875 76.65745 452.70555 78.656267 453.75 80.375 C 454.80768 82.080524 456.11899 83.331735 457.71875 84.125 C 459.31849 84.905045 461.52284 85.312499 464.3125 85.3125 C 467.52521 85.3125 469.99997 84.849757 471.71875 83.9375 C 473.43747 83.012025 474.90863 81.490381 476.125 79.375 L 468.15625 78.65625 C 467.65383 79.290868 467.18627 79.717551 466.75 79.96875 C 466.03605 80.365387 465.29324 80.562502 464.5 80.5625 C 463.24398 80.562504 462.21752 80.09976 461.4375 79.1875 C 460.8822 78.552894 460.52042 77.608178 460.375 76.3125 L 476.5625 76.3125 L 476.5625 75.375 C 476.56247 72.598582 476.09973 70.356978 475.1875 68.625 C 474.27522 66.893054 472.96393 65.568528 471.21875 64.65625 C 469.47355 63.744015 467.07689 63.281272 464.0625 63.28125 z M 530.5625 63.28125 C 526.84736 63.281272 523.92785 64.307722 521.8125 66.34375 C 519.71034 68.379815 518.65626 71.051707 518.65625 74.34375 C 518.65625 76.65745 519.17428 78.656267 520.21875 80.375 C 521.27643 82.080524 522.61901 83.331735 524.21875 84.125 C 525.81849 84.905045 527.9916 85.312499 530.78125 85.3125 C 533.99396 85.3125 536.46874 84.849757 538.1875 83.9375 C 539.90622 83.012025 541.37736 81.490381 542.59375 79.375 L 534.625 78.65625 C 534.12258 79.290868 533.655 79.717551 533.21875 79.96875 C 532.5048 80.365387 531.76197 80.562502 530.96875 80.5625 C 529.71273 80.562504 528.68626 80.09976 527.90625 79.1875 C 527.35095 78.552894 527.02041 77.608178 526.875 76.3125 L 543.03125 76.3125 L 543.03125 75.375 C 543.03122 72.598582 542.59974 70.356978 541.6875 68.625 C 540.77522 66.893054 539.43266 65.568528 537.6875 64.65625 C 535.9423 63.744015 533.5769 63.281272 530.5625 63.28125 z M 584.8125 63.28125 C 581.09736 63.281272 578.17785 64.307722 576.0625 66.34375 C 573.96034 68.379815 572.90626 71.051707 572.90625 74.34375 C 572.90625 76.65745 573.42428 78.656267 574.46875 80.375 C 575.52643 82.080524 576.86901 83.331735 578.46875 84.125 C 580.06849 84.905045 582.27285 85.312499 585.0625 85.3125 C 588.27521 85.3125 590.71874 84.849757 592.4375 83.9375 C 594.15622 83.012025 595.62736 81.490381 596.84375 79.375 L 588.90625 78.65625 C 588.40383 79.290868 587.93625 79.717551 587.5 79.96875 C 586.78605 80.365387 586.01197 80.562502 585.21875 80.5625 C 583.96273 80.562504 582.93626 80.09976 582.15625 79.1875 C 581.60095 78.552894 581.27041 77.608178 581.125 76.3125 L 597.3125 76.3125 L 597.3125 75.375 C 597.31247 72.598582 596.84974 70.356978 595.9375 68.625 C 595.02522 66.893054 593.68266 65.568528 591.9375 64.65625 C 590.1923 63.744015 587.8269 63.281272 584.8125 63.28125 z M 613.8125 63.28125 C 612.67547 63.281272 611.71751 63.587762 610.9375 64.15625 C 610.17066 64.711556 609.41462 65.724782 608.6875 67.21875 L 608.6875 63.78125 L 601.125 63.78125 L 601.125 84.84375 L 609.25 84.84375 L 609.25 77.78125 C 609.24999 74.409881 609.66708 72.104576 610.5 70.875 C 611.08172 70.002422 611.87978 69.562512 612.9375 69.5625 C 613.49277 69.562515 614.2668 69.75963 615.21875 70.15625 L 617.71875 64.40625 C 616.30408 63.66589 615.0024 63.281272 613.8125 63.28125 z M 630.3125 63.28125 C 628.80528 63.281272 627.38939 63.400262 626.09375 63.625 C 624.79808 63.84978 623.77161 64.183916 623.03125 64.59375 C 622 65.162277 621.21154 65.813724 620.65625 66.59375 C 620.11418 67.360591 619.69712 68.432712 619.40625 69.78125 L 627.125 70.59375 C 627.4423 69.68151 627.85935 69.049292 628.375 68.71875 C 629.03604 68.295691 630.02162 68.093766 631.34375 68.09375 C 632.37498 68.093767 633.1214 68.290885 633.53125 68.6875 C 633.94109 69.084149 634.12498 69.789685 634.125 70.78125 C 633.12018 71.177897 632.18028 71.49881 631.28125 71.75 C 630.3822 71.987993 628.40259 72.391838 625.375 73 C 622.84977 73.502413 621.1262 74.281264 620.1875 75.3125 C 619.2488 76.343754 618.78122 77.650255 618.78125 79.25 C 618.78125 80.955525 619.42308 82.399047 620.71875 83.5625 C 622.02763 84.725957 623.95675 85.312499 626.46875 85.3125 C 628.35936 85.3125 630.00959 85.019224 631.4375 84.4375 C 632.48195 84.001205 633.53606 83.26803 634.59375 82.25 C 634.68628 82.858172 634.78244 83.302886 634.875 83.59375 C 634.96753 83.871394 635.16463 84.301686 635.46875 84.84375 L 643.03125 84.84375 C 642.60815 83.971159 642.31969 83.242785 642.1875 82.6875 C 642.06849 82.118996 642.03121 81.335333 642.03125 80.34375 L 642.03125 71.0625 C 642.03123 70.070933 641.83412 69.021645 641.4375 67.9375 C 641.04084 66.840167 640.49995 66.00122 639.8125 65.40625 C 638.83412 64.546899 637.59252 63.983192 636.125 63.71875 C 634.65744 63.441128 632.73195 63.281272 630.3125 63.28125 z M 658.21875 63.28125 C 655.75961 63.281272 653.72955 63.602187 652.15625 64.25 C 651.16466 64.659874 650.18871 65.310122 649.25 66.15625 C 648.3113 66.989197 647.57332 67.942327 647.03125 69 C 646.29087 70.441114 645.93747 72.238 645.9375 74.40625 C 645.9375 76.48197 646.23557 78.15025 646.84375 79.40625 C 647.45192 80.662258 648.30408 81.748803 649.375 82.6875 C 650.4459 83.612978 651.70672 84.295674 653.1875 84.71875 C 654.68147 85.128604 656.54686 85.312502 658.78125 85.3125 C 661.09493 85.3125 663.00601 84.991584 664.5 84.34375 C 666.00718 83.695917 667.22231 82.788458 668.1875 81.625 C 669.15262 80.448327 669.85817 79.068505 670.28125 77.46875 L 662.59375 76.59375 C 662.23676 77.71755 661.6959 78.551692 660.96875 79.09375 C 660.25479 79.63582 659.37015 79.906258 658.3125 79.90625 C 657.04326 79.906255 656.00719 79.46154 655.1875 78.5625 C 654.36778 77.663473 653.96873 76.35697 653.96875 74.625 C 653.96874 72.681511 654.36778 71.233183 655.1875 70.28125 C 656.02042 69.316125 657.10216 68.812514 658.4375 68.8125 C 659.49517 68.812516 660.34735 69.068526 660.96875 69.53125 C 661.60335 69.980782 662.04325 70.632229 662.28125 71.53125 L 669.875 70.53125 C 669.14782 68.16469 667.87377 66.354583 666.0625 65.125 C 664.26441 63.895459 661.65622 63.281272 658.21875 63.28125 z M 698.65625 63.28125 C 694.96755 63.281272 692.01202 64.348584 689.84375 66.4375 C 687.67549 68.513228 686.59375 71.131037 686.59375 74.34375 C 686.59375 77.794463 687.8726 80.590161 690.4375 82.71875 C 692.52643 84.437493 695.27167 85.312499 698.65625 85.3125 C 702.45069 85.3125 705.42068 84.281239 707.5625 82.21875 C 709.71751 80.143043 710.81244 77.489173 710.8125 74.25 C 710.81247 71.367814 709.91943 68.938707 708.1875 66.96875 C 706.03244 64.522868 702.87373 63.281272 698.65625 63.28125 z M 729.84375 63.28125 C 728.1911 63.281272 726.80644 63.610599 725.65625 64.21875 C 724.506 64.813719 723.37378 65.786084 722.25 67.1875 L 722.25 63.78125 L 714.71875 63.78125 L 714.71875 84.84375 L 722.8125 84.84375 L 722.8125 74.71875 C 722.81249 72.801703 723.11058 71.459142 723.71875 70.71875 C 724.32691 69.978383 725.11536 69.625013 726.09375 69.625 C 726.97955 69.625015 727.66703 69.882232 728.15625 70.4375 C 728.64541 70.979579 728.87497 71.927903 728.875 73.25 L 728.875 84.84375 L 737 84.84375 L 737 71.4375 C 736.99998 68.661086 736.36296 66.60338 735.09375 65.28125 C 733.83772 63.94594 732.07809 63.281272 729.84375 63.28125 z M 674.34375 63.78125 L 674.34375 84.84375 L 682.40625 84.84375 L 682.40625 63.78125 L 674.34375 63.78125 z M 464.40625 68.0625 C 465.51681 68.062517 466.41946 68.419488 467.09375 69.09375 C 467.78123 69.768041 468.18508 70.877422 468.34375 72.4375 L 460.40625 72.4375 C 460.53845 71.18151 460.85457 70.22838 461.34375 69.59375 C 462.11056 68.575742 463.1238 68.062513 464.40625 68.0625 z M 530.875 68.0625 C 531.98556 68.062517 532.88822 68.419488 533.5625 69.09375 C 534.24998 69.768041 534.68509 70.877422 534.84375 72.4375 L 526.875 72.4375 C 527.0072 71.18151 527.32331 70.22838 527.8125 69.59375 C 528.57931 68.575742 529.59253 68.062513 530.875 68.0625 z M 585.15625 68.0625 C 586.26681 68.062517 587.13822 68.419488 587.8125 69.09375 C 588.49998 69.768041 588.93509 70.877422 589.09375 72.4375 L 581.125 72.4375 C 581.2572 71.18151 581.57331 70.22838 582.0625 69.59375 C 582.82931 68.575742 583.87378 68.062513 585.15625 68.0625 z M 391.4375 68.84375 C 392.54806 68.843766 393.49637 69.288477 394.25 70.1875 C 395.00359 71.073327 395.37497 72.425501 395.375 74.25 C 395.37498 76.206731 395.00357 77.645446 394.25 78.53125 C 393.5096 79.417069 392.5697 79.843757 391.40625 79.84375 C 390.256 79.843755 389.29806 79.399039 388.53125 78.5 C 387.77764 77.600973 387.37498 76.221151 387.375 74.34375 C 387.37499 72.492809 387.76441 71.117797 388.53125 70.21875 C 389.29806 69.30651 390.2608 68.843767 391.4375 68.84375 z M 698.75 68.84375 C 699.86056 68.843766 700.80888 69.288477 701.5625 70.1875 C 702.31609 71.073327 702.68746 72.425501 702.6875 74.25 C 702.68748 76.206731 702.31609 77.645446 701.5625 78.53125 C 700.8221 79.417069 699.85096 79.843757 698.6875 79.84375 C 697.53725 79.843755 696.57929 79.399039 695.8125 78.5 C 695.05889 77.600973 694.6875 76.221151 694.6875 74.34375 C 694.68749 72.492809 695.07689 71.117797 695.84375 70.21875 C 696.61056 69.30651 697.57331 68.843767 698.75 68.84375 z M 419.28125 69.3125 C 420.19349 69.312516 420.95913 69.719971 421.59375 70.5 C 422.24157 71.280058 422.56247 72.490406 422.5625 74.15625 C 422.56248 76.046876 422.22355 77.412273 421.5625 78.21875 C 420.91465 79.012022 420.12136 79.406253 419.15625 79.40625 C 418.11177 79.406255 417.24999 78.993992 416.5625 78.1875 C 415.88821 77.367799 415.53124 76.061296 415.53125 74.25 C 415.53124 72.597375 415.87499 71.369002 416.5625 70.5625 C 417.26321 69.742807 418.18388 69.312516 419.28125 69.3125 z M 557.15625 69.3125 C 558.22714 69.312516 559.11175 69.742809 559.8125 70.5625 C 560.5132 71.369 560.87496 72.597373 560.875 74.25 C 560.87498 76.07452 560.53121 77.38102 559.84375 78.1875 C 559.15624 78.993993 558.28122 79.406253 557.25 79.40625 C 556.28485 79.406255 555.47357 79.012024 554.8125 78.21875 C 554.16466 77.412271 553.84376 76.125001 553.84375 74.40625 C 553.84374 72.56853 554.17785 71.280059 554.8125 70.5 C 555.4471 69.71997 556.21755 69.312516 557.15625 69.3125 z M 634.125 74.84375 L 634.125 76.125 C 634.12498 77.129811 633.95551 77.959147 633.625 78.59375 C 633.30768 79.215147 632.78005 79.719961 632 80.15625 C 631.23316 80.59255 630.39904 80.812501 629.5 80.8125 C 628.64062 80.812504 627.98076 80.61539 627.53125 80.21875 C 627.09494 79.808901 626.87497 79.290867 626.875 78.65625 C 626.87499 78.100971 627.08172 77.623803 627.53125 77.1875 C 627.96754 76.764433 629.0168 76.311302 630.65625 75.875 C 631.85936 75.570924 633.01441 75.240391 634.125 74.84375 z "
       style="font-size:40.61520767px;font-style:normal;font-variant:normal;font-weight:bold;font-stretch:normal;text-align:center;line-height:100%;writing-mode:lr-tb;text-anchor:middle;fill:url(#linearGradient3155);fill-opacity:1;stroke:none;stroke-width:1px;stroke-linecap:butt;stroke-linejoin:miter;stroke-opacity:1;font-family:Arial Black"
       id="path3147"
       d="M 261.71875,52.75 C 258.47666,52.750032 255.78996,53.146297 253.5625,54.125 C 251.48193,55.030315 249.73409,56.363397 248.5625,58.15625 C 247.45665,59.857585 246.87499,61.816415 246.875,63.78125 C 246.875,66.670426 248.1111,69.368104 250.28125,71.25 C 250.8341,71.733204 251.6128,72.069755 252.28125,72.46875 L 248.125,72.71875 C 247.44991,72.758688 246.81976,73.07028 246.37819,73.582494 C 245.93663,74.094709 245.72128,74.763893 245.78125,75.4375 C 246.07518,78.871899 247.43863,81.938638 249.75,84.25 C 252.41603,86.916042 256.5196,87.812502 261.78125,87.8125 C 264.82293,87.8125 267.48922,87.40491 269.78125,86.40625 C 272.0133,85.417758 273.91338,83.897751 275.21875,81.90625 C 275.67361,81.21228 275.92289,80.444237 276.21875,79.6875 C 276.89842,81.380813 277.80239,82.958647 279.09375,84.25 C 281.76946,86.925722 285.89461,87.812502 291.15625,87.8125 C 294.19793,87.8125 296.86422,87.404897 299.15625,86.40625 C 301.39783,85.413538 303.26983,83.878377 304.5625,81.90625 C 305.32344,80.745304 305.77975,79.473254 306.09375,78.15625 L 306.09375,84.84375 C 306.09448,86.224159 307.21334,87.34302 308.59375,87.34375 L 317.5625,87.34375 C 318.94291,87.34302 320.06177,86.224159 320.0625,84.84375 L 320.0625,75.5625 L 324.90625,75.5625 L 324.90625,84.84375 C 324.90698,86.224159 326.02584,87.34302 327.40625,87.34375 L 336.40625,87.34375 C 337.78666,87.34302 338.90552,86.224159 338.90625,84.84375 L 338.90625,55.75 C 338.90552,54.369591 337.78666,53.25073 336.40625,53.25 L 327.40625,53.25 C 326.02584,53.25073 324.90698,54.369591 324.90625,55.75 L 324.90625,63.4375 L 320.0625,63.4375 L 320.0625,55.75 C 320.06177,54.369591 318.94291,53.25073 317.5625,53.25 L 308.59375,53.25 C 307.21334,53.25073 306.09448,54.369591 306.09375,55.75 L 306.09375,72.40625 C 305.84209,71.486082 305.47038,70.574731 304.96875,69.75 C 304.17507,68.422695 302.98184,67.423357 301.625,66.53125 L 303.21875,66.4375 C 303.90641,66.391023 304.54443,66.062856 304.98216,65.530474 C 305.4199,64.998092 305.61856,64.308681 305.53125,63.625 C 305.10109,60.122578 303.60079,57.140132 301,55.3125 C 298.45476,53.49453 295.12551,52.750031 291.09375,52.75 C 287.85166,52.750032 285.16496,53.146297 282.9375,54.125 C 280.85694,55.030313 279.10909,56.363379 277.9375,58.15625 C 276.8581,59.816898 276.23162,61.741219 276.21875,63.71875 C 276.20895,63.687297 276.19853,63.656041 276.1875,63.625 C 275.75734,60.122572 274.25703,57.140131 271.65625,55.3125 C 269.10069,53.48716 265.75051,52.750031 261.71875,52.75 z M 698.25,52.75 C 697.433,52.833134 696.70885,53.312007 696.3125,54.03125 L 693,59.96875 C 692.69076,60.519665 692.60145,61.167192 692.75,61.78125 C 690.99653,62.422548 689.41661,63.350556 688.09375,64.625 C 686.59614,66.058696 685.57116,67.830382 684.90625,69.75 L 684.90625,63.78125 C 684.90907,63.331012 684.79031,62.888361 684.5625,62.5 C 684.78495,62.120783 684.90351,61.689636 684.90625,61.25 L 684.90625,55.75 C 684.90552,54.369591 683.78666,53.25073 682.40625,53.25 L 674.34375,53.25 C 672.96334,53.25073 671.84448,54.369591 671.84375,55.75 L 671.84375,61.25 C 671.84093,61.700238 671.95969,62.142889 672.1875,62.53125 C 671.96505,62.910467 671.84649,63.341614 671.84375,63.78125 L 671.84375,68.90625 C 670.92471,66.515134 669.50757,64.446555 667.46875,63.0625 C 665.06078,61.41592 661.95413,60.781274 658.21875,60.78125 C 655.54203,60.781274 653.22355,61.112014 651.21875,61.9375 C 651.20833,61.937435 651.19792,61.937435 651.1875,61.9375 C 649.8683,62.482793 648.66823,63.315821 647.5625,64.3125 C 646.40207,65.342197 645.49664,66.508871 644.8125,67.84375 C 644.55083,68.353084 644.43134,68.949339 644.25,69.5 C 644.12868,68.692399 644.0748,67.89616 643.78125,67.09375 C 643.27603,65.696088 642.51378,64.43149 641.4375,63.5 C 640.07832,62.306173 638.39822,61.58079 636.5625,61.25 C 634.87465,60.930705 632.8421,60.781273 630.3125,60.78125 C 628.67367,60.781274 627.10774,60.904479 625.65625,61.15625 C 624.16849,61.414355 622.9059,61.800988 621.8125,62.40625 C 621.18692,62.75113 620.62767,63.147937 620.09375,63.59375 C 620.08333,63.593685 620.07292,63.593685 620.0625,63.59375 C 619.85978,62.991109 619.43518,62.488285 618.875,62.1875 C 617.21718,61.319891 615.54132,60.781282 613.8125,60.78125 C 612.50517,60.781275 611.27967,61.171952 610.1875,61.78125 C 609.75471,61.45678 609.22841,61.281345 608.6875,61.28125 L 601.125,61.28125 C 599.74459,61.28198 598.62573,62.400841 598.625,63.78125 L 598.625,68.8125 C 598.4537,68.372189 598.37233,67.878997 598.15625,67.46875 C 597.01747,65.306807 595.25301,63.566248 593.09375,62.4375 C 590.83404,61.256327 588.08285,60.781274 584.8125,60.78125 C 580.63669,60.781275 576.95365,61.989135 574.3125,64.53125 C 574.31243,64.541667 574.31243,64.552083 574.3125,64.5625 C 573.05297,65.782427 572.12393,67.207261 571.46875,68.8125 L 571.46875,55.75 C 571.46802,54.369591 570.34916,53.25073 568.96875,53.25 L 560.8125,53.25 C 559.43209,53.25073 558.31323,54.369591 558.3125,55.75 L 558.3125,61.5 C 557.16064,61.105766 555.97457,60.781273 554.65625,60.78125 C 551.47648,60.781277 548.53954,62.057825 546.4375,64.375 C 545.4293,65.495228 544.69838,66.837067 544.1875,68.3125 C 544.07088,68.044691 544.04151,67.725561 543.90625,67.46875 C 542.76747,65.306807 541.00301,63.566248 538.84375,62.4375 C 536.58404,61.256327 533.83285,60.781274 530.5625,60.78125 C 526.38669,60.781275 522.70365,61.989135 520.0625,64.53125 C 520.06243,64.541667 520.06243,64.552083 520.0625,64.5625 C 518.82008,65.765856 517.90449,67.170819 517.25,68.75 L 517.25,67.09375 C 517.24927,65.713341 516.13041,64.59448 514.75,64.59375 L 505.96875,64.59375 L 505.96875,64.5 L 516.65625,64.5 C 518.03666,64.49927 519.15552,63.380409 519.15625,62 L 519.15625,55.75 C 519.15552,54.369591 518.03666,53.25073 516.65625,53.25 L 494.46875,53.25 C 493.08834,53.25073 491.96948,54.369591 491.96875,55.75 L 491.96875,84.84375 C 491.96948,86.224159 493.08834,87.34302 494.46875,87.34375 L 503.46875,87.34375 C 504.84916,87.34302 505.96802,86.224159 505.96875,84.84375 L 505.96875,75.4375 L 514.75,75.4375 C 515.2802,75.430724 515.79454,75.255632 516.21875,74.9375 C 516.30736,77.392037 516.89243,79.710665 518.09375,81.6875 C 519.36229,83.733045 521.05521,85.364146 523.09375,86.375 C 523.10417,86.375065 523.11458,86.375065 523.125,86.375 C 525.21836,87.395737 527.74806,87.812499 530.78125,87.8125 C 534.23412,87.8125 537.08745,87.370402 539.375,86.15625 C 539.37507,86.145833 539.37507,86.135417 539.375,86.125 C 541.54579,84.9561 543.30351,83.091992 544.6875,80.71875 C 545.07423,81.648895 545.39704,82.610015 545.96875,83.4375 C 545.96868,83.447917 545.96868,83.458333 545.96875,83.46875 C 547.91212,86.257073 551.11687,87.812499 554.625,87.8125 C 556.40095,87.8125 558.1208,87.427605 559.65625,86.625 C 560.12299,87.08445 560.75131,87.342512 561.40625,87.34375 L 568.96875,87.34375 C 570.34916,87.34302 571.46802,86.224159 571.46875,84.84375 L 571.46875,79.625 C 571.73744,80.320927 571.95692,81.050942 572.34375,81.6875 C 573.61229,83.733045 575.30521,85.364146 577.34375,86.375 C 577.35417,86.375065 577.36458,86.375065 577.375,86.375 C 579.47989,87.401361 582.02931,87.812499 585.0625,87.8125 C 588.51537,87.8125 591.34854,87.364516 593.625,86.15625 C 593.62507,86.145833 593.62507,86.135417 593.625,86.125 C 595.65476,85.032039 597.28341,83.282576 598.625,81.125 L 598.625,84.84375 C 598.62573,86.224159 599.74459,87.34302 601.125,87.34375 L 609.25,87.34375 C 610.63041,87.34302 611.74927,86.224159 611.75,84.84375 L 611.75,77.78125 C 611.74999,74.616165 612.32624,72.63002 612.5625,72.28125 C 612.57301,72.270926 612.58343,72.260508 612.59375,72.25 C 612.80505,71.933052 612.57324,72.062504 612.9375,72.0625 C 612.90093,72.062499 613.47078,72.144095 614.25,72.46875 C 615.44348,72.977003 616.82745,72.488541 617.4375,71.34375 C 617.85924,71.876796 618.47975,72.215257 619.15625,72.28125 L 620.09375,72.375 C 619.47725,72.756124 618.83053,73.090229 618.34375,73.625 C 616.97551,75.128145 616.28121,77.16288 616.28125,79.25 C 616.28125,81.583001 617.30714,83.86127 619.0625,85.4375 C 620.97146,87.134366 623.56742,87.812499 626.46875,87.8125 C 628.61801,87.8125 630.59556,87.474937 632.375,86.75 C 632.38542,86.750065 632.39583,86.750065 632.40625,86.75 C 632.73225,86.613821 632.9987,86.295992 633.3125,86.125 C 633.76555,86.883571 634.58519,87.346849 635.46875,87.34375 L 643.03125,87.34375 C 643.89293,87.343695 644.69391,86.900128 645.15117,86.169782 C 645.60843,85.439437 645.65758,84.525156 645.28125,83.75 C 644.90183,82.967495 644.68147,82.330944 644.625,82.09375 C 644.57897,81.87389 644.53121,81.272592 644.53125,80.34375 C 644.55422,80.393377 644.56993,80.45081 644.59375,80.5 C 645.35473,82.071586 646.42297,83.426709 647.71875,84.5625 C 647.72907,84.573008 647.73949,84.583426 647.75,84.59375 C 649.09531,85.756376 650.69644,86.609702 652.5,87.125 C 652.51042,87.125065 652.52083,87.125065 652.53125,87.125 C 654.35339,87.624884 656.40963,87.812502 658.78125,87.8125 C 661.3262,87.8125 663.56837,87.462608 665.5,86.625 C 667.3376,85.835142 668.90923,84.684258 670.125,83.21875 C 670.8306,82.358489 671.37063,81.377235 671.84375,80.34375 L 671.84375,84.84375 C 671.84448,86.224159 672.96334,87.34302 674.34375,87.34375 L 682.40625,87.34375 C 683.78666,87.34302 684.90552,86.224159 684.90625,84.84375 L 684.90625,78.84375 C 685.67567,81.075348 686.96292,83.095368 688.84375,84.65625 C 691.44128,86.793461 694.84061,87.812499 698.65625,87.8125 C 702.90385,87.8125 706.6386,86.606113 709.3125,84.03125 C 710.58674,82.803903 711.54293,81.3504 712.21875,79.75 L 712.21875,84.84375 C 712.21948,86.224159 713.33834,87.34302 714.71875,87.34375 L 722.8125,87.34375 C 724.19291,87.34302 725.31177,86.224159 725.3125,84.84375 L 725.3125,74.71875 C 725.31249,73.060978 725.73493,72.216715 725.65625,72.3125 C 725.83918,72.089801 725.71756,72.125005 726.09375,72.125 C 726.4954,72.125007 726.30707,72.123061 726.28125,72.09375 C 726.29157,72.104258 726.30199,72.114676 726.3125,72.125 C 726.09044,71.878913 726.37498,72.217389 726.375,73.25 L 726.375,84.84375 C 726.37573,86.224159 727.49459,87.34302 728.875,87.34375 L 737,87.34375 C 738.38041,87.34302 739.49927,86.224159 739.5,84.84375 L 739.5,71.4375 C 739.49998,68.278531 738.78374,65.518273 736.90625,63.5625 C 735.13528,61.679749 732.57409,60.781277 729.84375,60.78125 C 727.85886,60.781276 726.05361,61.178544 724.5,62 C 724.39013,62.056833 724.29557,62.157688 724.1875,62.21875 C 723.71602,61.63015 723.00414,61.285692 722.25,61.28125 L 714.71875,61.28125 C 713.33834,61.28198 712.21948,62.400841 712.21875,63.78125 L 712.21875,68.9375 C 711.68123,67.629529 711.00248,66.381664 710.0625,65.3125 C 708.18276,63.179087 705.63125,61.847693 702.65625,61.21875 L 707.125,57.09375 C 707.88393,56.396882 708.1379,55.305945 707.7648,54.345534 C 707.39169,53.385123 706.46784,52.751757 705.4375,52.75 L 698.5,52.75 C 698.41672,52.745833 698.33328,52.745833 698.25,52.75 L 698.25,52.75 z M 407.21875,53.25 C 405.9368,53.379447 404.96291,54.461541 404.96875,55.75 L 404.96875,69.0625 C 404.43613,67.712403 403.75101,66.415533 402.78125,65.3125 C 400.09442,62.263088 396.05211,60.781275 391.34375,60.78125 C 387.17261,60.781275 383.46078,62.043516 380.78125,64.625 C 379.65097,65.707044 378.81613,67.00198 378.15625,68.375 C 378.13321,68.258334 378.10188,68.143459 378.0625,68.03125 C 377.43013,66.3872 376.57036,64.976674 375.46875,63.875 C 374.38759,62.775884 373.00925,61.990958 371.46875,61.5 C 369.80864,60.965114 367.80785,60.781273 365.15625,60.78125 C 362.60298,60.781274 360.45851,61.036374 358.625,61.6875 C 356.8444,62.303247 355.31983,63.30797 354.1875,64.71875 C 353.03264,66.157616 352.40625,67.991629 352.40625,69.875 C 352.40625,71.649522 352.98688,73.382537 354.03125,74.78125 C 354.48174,75.374005 355.02847,75.889256 355.59375,76.34375 L 353.8125,76.5 C 353.08945,76.562856 352.42935,76.936667 352.00354,77.524407 C 351.57773,78.112147 351.42819,78.855857 351.59375,79.5625 C 352.17484,82.102673 353.61679,84.310518 355.75,85.75 C 355.74993,85.760417 355.74993,85.770833 355.75,85.78125 C 358.16101,87.395077 361.33023,87.812502 365.40625,87.8125 C 368.32919,87.8125 370.7835,87.507969 372.84375,86.625 C 372.84382,86.614583 372.84382,86.604167 372.84375,86.59375 C 374.76453,85.761401 376.39026,84.56276 377.4375,82.90625 C 377.88426,82.212158 378.1908,81.472614 378.4375,80.71875 C 379.22821,82.18561 380.23213,83.552184 381.5625,84.65625 C 384.15057,86.78568 387.52809,87.812499 391.34375,87.8125 C 395.59135,87.8125 399.32609,86.606097 402,84.03125 C 403.30865,82.770758 404.29186,81.277104 404.96875,79.625 L 404.96875,84.84375 C 404.96948,86.224159 406.08834,87.34302 407.46875,87.34375 L 415,87.34375 C 415.64409,87.334417 416.25976,87.076959 416.71875,86.625 C 416.72917,86.625065 416.73958,86.625065 416.75,86.625 C 418.28966,87.420791 420.01525,87.812499 421.78125,87.8125 C 423.85952,87.8125 425.88101,87.236348 427.625,86.125 C 429.44073,84.961503 430.85002,83.213024 431.78125,81.09375 C 431.93583,80.739275 431.99914,80.336209 432.125,79.96875 L 432.125,84.84375 C 432.12573,86.224159 433.24459,87.34302 434.625,87.34375 L 442.75,87.34375 C 444.13041,87.34302 445.24927,86.224159 445.25,84.84375 L 445.25,77.78125 C 445.24999,74.61616 445.82625,72.630008 446.0625,72.28125 C 446.07301,72.270926 446.08343,72.260508 446.09375,72.25 C 446.30504,71.933063 446.07325,72.062504 446.4375,72.0625 C 446.40093,72.062499 446.9708,72.144101 447.75,72.46875 C 448.437,72.755234 449.2159,72.72087 449.875,72.375 C 449.79203,73.026411 449.6875,73.666365 449.6875,74.34375 C 449.6875,77.030786 450.32425,79.547 451.625,81.6875 C 452.88191,83.714281 454.54356,85.358384 456.59375,86.375 C 456.60417,86.375065 456.61458,86.375065 456.625,86.375 C 458.72989,87.401359 461.2793,87.812499 464.3125,87.8125 C 467.76537,87.8125 470.6187,87.370388 472.90625,86.15625 C 472.90632,86.145833 472.90632,86.135417 472.90625,86.125 C 475.10801,84.939425 476.88884,83.046539 478.28125,80.625 C 478.72756,79.851424 478.72756,78.898576 478.28125,78.125 C 478.7791,77.65346 479.06153,76.998212 479.0625,76.3125 L 479.0625,75.375 C 479.06247,72.320697 478.57061,69.679431 477.40625,67.46875 C 476.27846,65.327658 474.54515,63.571929 472.375,62.4375 C 470.10443,61.250647 467.33284,60.781274 464.0625,60.78125 C 459.94614,60.781274 456.3419,61.976634 453.71875,64.4375 C 453.73102,63.494095 453.21141,62.62405 452.375,62.1875 C 450.70377,61.312872 449.01007,60.781282 447.28125,60.78125 C 445.97875,60.781275 444.74572,61.145138 443.65625,61.75 C 443.22823,61.443002 442.71423,61.278957 442.1875,61.28125 L 434.625,61.28125 C 433.24459,61.28198 432.12573,62.400841 432.125,63.78125 L 432.125,68.0625 C 431.61632,66.691981 430.93123,65.428454 429.96875,64.375 C 427.86231,62.05299 424.91964,60.781277 421.75,60.78125 C 420.44003,60.781273 419.24884,61.1079 418.09375,61.5 L 418.09375,55.75 C 418.09302,54.369591 416.97416,53.25073 415.59375,53.25 L 407.46875,53.25 C 407.38547,53.245833 407.30203,53.245833 407.21875,53.25 z M 276.21875,63.78125 C 276.21875,66.69334 277.49761,69.378089 279.65625,71.25 C 280.20936,71.733433 280.987,72.068442 281.65625,72.46875 L 277.46875,72.71875 C 277.25594,72.733594 277.0459,72.775602 276.84375,72.84375 C 276.59697,71.766975 276.20536,70.704182 275.625,69.75 C 274.83132,68.422695 273.63809,67.423357 272.28125,66.53125 L 273.875,66.4375 C 274.53839,66.396985 275.15838,66.094119 275.59811,65.595758 C 276.03784,65.097397 276.26115,64.444521 276.21875,63.78125 z M 377.25,70.90625 C 377.10314,71.498444 377.00654,72.098789 376.9375,72.71875 C 376.56455,72.269828 376.17619,71.830513 375.71875,71.46875 L 375.96875,71.4375 C 376.43737,71.384737 376.88154,71.200572 377.25,70.90625 L 377.25,70.90625 z M 658.4375,71.3125 C 659.3702,71.346115 659.41607,71.530516 659.53125,71.5625 C 659.68068,71.668355 659.75562,71.70532 659.875,72.15625 C 660.19415,73.363187 661.35437,74.150003 662.59375,74 L 670.1875,73 C 670.84155,72.917943 671.43676,72.581028 671.84375,72.0625 L 671.84375,75.5 C 671.47529,75.205678 671.03112,75.021513 670.5625,74.96875 L 662.875,74.09375 C 661.68493,73.966467 660.57146,74.700049 660.21875,75.84375 C 659.97433,76.61319 659.68662,76.931334 659.46875,77.09375 C 659.22818,77.276399 658.94379,77.406255 658.3125,77.40625 C 657.62748,77.406253 657.42065,77.302101 657.03125,76.875 C 656.75208,76.568816 656.46873,75.972787 656.46875,74.625 C 656.46874,73.023867 656.83065,72.211782 657.09375,71.90625 C 657.50804,71.426206 657.73098,71.312507 658.4375,71.3125 z M 391.4375,71.34375 C 392.26541,71.388769 392.33892,71.788373 392.34375,71.8125 C 392.54618,72.050455 392.87498,72.764879 392.875,74.25 C 392.87498,75.890255 392.49408,76.729545 392.34375,76.90625 C 392.34368,76.916667 392.34368,76.927083 392.34375,76.9375 C 392.01785,77.327406 391.95819,77.343753 391.40625,77.34375 C 390.90066,77.343752 390.80118,77.301387 390.4375,76.875 C 390.21149,76.605373 389.87498,75.863522 389.875,74.34375 C 389.87499,72.843617 390.21644,72.102918 390.4375,71.84375 C 390.43757,71.833333 390.43757,71.822917 390.4375,71.8125 C 390.80889,71.370668 390.91649,71.343758 391.4375,71.34375 z M 698.75,71.34375 C 699.57792,71.388781 699.65142,71.788379 699.65625,71.8125 C 699.85868,72.050447 700.18747,72.764863 700.1875,74.25 C 700.18748,75.890272 699.80656,76.729565 699.65625,76.90625 C 699.65618,76.916667 699.65618,76.927083 699.65625,76.9375 C 699.35255,77.300844 699.23946,77.343753 698.6875,77.34375 C 698.18191,77.343752 698.08238,77.301347 697.71875,76.875 C 697.51462,76.631476 697.1875,75.891307 697.1875,74.34375 C 697.18749,72.843599 697.52895,72.102898 697.75,71.84375 C 697.75007,71.833333 697.75007,71.822917 697.75,71.8125 C 698.12139,71.370676 698.229,71.343758 698.75,71.34375 z M 419.28125,71.8125 C 419.44877,71.812503 419.37404,71.746872 419.65625,72.09375 C 419.75104,72.207888 420.06248,72.81158 420.0625,74.15625 C 420.06248,75.747979 419.67438,76.564758 419.625,76.625 C 419.35307,76.957966 419.44026,76.906251 419.15625,76.90625 C 418.7699,76.906252 418.75982,76.903952 418.46875,76.5625 C 418.34766,76.415292 418.03124,75.732682 418.03125,74.25 C 418.03124,72.944202 418.3276,72.353081 418.46875,72.1875 C 418.74726,71.861693 418.83766,71.812506 419.28125,71.8125 z M 557.15625,71.8125 C 557.71643,71.779499 557.97732,72.141822 557.9375,72.1875 C 558.09309,72.366588 558.37497,72.962333 558.375,74.25 C 558.37498,75.760371 558.0269,76.457621 557.9375,76.5625 C 557.65669,76.891912 557.61463,76.906251 557.25,76.90625 C 556.96593,76.906251 556.99646,76.958244 556.71875,76.625 C 556.63214,76.517182 556.34376,75.813699 556.34375,74.40625 C 556.34374,72.871678 556.69505,72.161292 556.75,72.09375 C 557.02828,71.751698 556.94127,71.812504 557.15625,71.8125 z M 259.625,75.28125 C 259.67708,75.302083 259.80208,75.34375 259.8125,75.34375 C 262.07138,75.840222 263.42797,76.597668 263.25,76.4375 C 263.51989,76.680406 263.4375,76.621303 263.4375,76.625 C 263.4375,76.657905 263.56294,76.572144 263.25,76.84375 C 263.11408,76.961374 262.81517,77.125003 261.9375,77.125 C 260.80525,77.125003 260.40347,76.904949 259.9375,76.3125 C 259.84322,76.191916 259.74116,75.621714 259.625,75.28125 z M 288.96875,75.28125 C 289.02083,75.302083 289.14583,75.34375 289.15625,75.34375 C 291.41513,75.840223 292.77176,76.597703 292.59375,76.4375 C 292.86364,76.680414 292.78125,76.621346 292.78125,76.625 C 292.78125,76.723589 292.91014,76.596273 292.625,76.84375 C 292.51743,76.936834 292.15892,77.125003 291.28125,77.125 C 290.149,77.125003 289.74722,76.904949 289.28125,76.3125 C 289.18698,76.191922 289.08491,75.621718 288.96875,75.28125 z " />
    <text
       xml:space="preserve"
       style="font-size:40.61520767px;font-style:normal;font-variant:normal;font-weight:bold;font-stretch:normal;text-align:center;line-height:100%;writing-mode:lr-tb;text-anchor:middle;fill:url(#linearGradient3187);fill-opacity:1;stroke:none;stroke-width:1px;stroke-linecap:butt;stroke-linejoin:miter;stroke-opacity:1;font-family:Arial Black"
       x="493.14758"
       y="84.830223"
       id="text2165"
       sodipodi:linespacing="100%"><tspan
         sodipodi:role="line"
         id="tspan2167"
         x="493.14759"
         y="84.830223"
         style="fill:url(#linearGradient3187);fill-opacity:1">SSH sobre Federacin</tspan></text>
    <g
       id="g3199"
       mask="url(#mask4192)">
      <path
         transform="matrix(1,0,0,-1,0,178.55938)"
         sodipodi:type="inkscape:offset"
         inkscape:radius="2.5010729"
         inkscape:original="M 261.71875 55.25 C 258.69111 55.25003 256.30767 55.639456 254.5625 56.40625 C 252.83053 57.15988 251.52884 58.195946 250.65625 59.53125 C 249.79688 60.853384 249.37499 62.287289 249.375 63.78125 C 249.375 66.055297 250.21394 67.907477 251.90625 69.375 C 253.58532 70.842556 256.40386 72.020447 260.34375 72.90625 C 262.74997 73.435105 264.27642 73.998814 264.9375 74.59375 C 265.59854 75.188709 265.93748 75.87141 265.9375 76.625 C 265.93748 77.418273 265.57571 78.110586 264.875 78.71875 C 264.18749 79.313705 263.21992 79.625004 261.9375 79.625 C 260.21874 79.625005 258.89422 79.02043 257.96875 77.84375 C 257.40023 77.116597 257.02883 76.075723 256.84375 74.6875 L 248.28125 75.21875 C 248.53245 78.15384 249.62741 80.564913 251.53125 82.46875 C 253.43508 84.372588 256.83654 85.312502 261.78125 85.3125 C 264.59733 85.3125 266.93029 84.931483 268.78125 84.125 C 270.63218 83.305294 272.09374 82.104563 273.125 80.53125 C 274.15622 78.957945 274.65623 77.239182 274.65625 75.375 C 274.65622 73.788479 274.28003 72.344958 273.5 71.0625 C 272.73315 69.780069 271.48674 68.703141 269.78125 67.84375 C 268.08893 66.971175 265.2704 66.127418 261.34375 65.28125 C 259.75721 64.950742 258.76681 64.60218 258.34375 64.21875 C 257.90744 63.84858 257.6875 63.431508 257.6875 62.96875 C 257.68749 62.33416 257.93989 61.780069 258.46875 61.34375 C 258.99758 60.894257 259.79928 60.687523 260.84375 60.6875 C 262.11296 60.687524 263.09854 60.967576 263.8125 61.5625 C 264.53964 62.157472 265.02521 63.128632 265.25 64.4375 L 273.71875 63.9375 C 273.34853 60.923114 272.17545 58.718771 270.21875 57.34375 C 268.27523 55.955564 265.43387 55.250029 261.71875 55.25 z M 291.09375 55.25 C 288.06611 55.25003 285.68267 55.639456 283.9375 56.40625 C 282.20553 57.15988 280.90383 58.195946 280.03125 59.53125 C 279.17188 60.853384 278.71875 62.287289 278.71875 63.78125 C 278.71875 66.055297 279.58894 67.907477 281.28125 69.375 C 282.96032 70.842556 285.74761 72.020447 289.6875 72.90625 C 292.09372 73.435105 293.62018 73.998814 294.28125 74.59375 C 294.94229 75.188709 295.28124 75.87141 295.28125 76.625 C 295.28123 77.418273 294.95071 78.110586 294.25 78.71875 C 293.56249 79.313705 292.56367 79.625004 291.28125 79.625 C 289.56249 79.625005 288.23797 79.02043 287.3125 77.84375 C 286.74398 77.116597 286.37259 76.075723 286.1875 74.6875 L 277.625 75.21875 C 277.8762 78.15384 278.97116 80.564913 280.875 82.46875 C 282.77883 84.372588 286.21155 85.312502 291.15625 85.3125 C 293.97233 85.3125 296.30526 84.931483 298.15625 84.125 C 300.00718 83.305294 301.43749 82.104563 302.46875 80.53125 C 303.49997 78.957945 303.99998 77.239182 304 75.375 C 303.99997 73.788479 303.62378 72.344958 302.84375 71.0625 C 302.0769 69.780069 300.83049 68.703141 299.125 67.84375 C 297.43268 66.971175 294.64541 66.127418 290.71875 65.28125 C 289.13221 64.950742 288.11057 64.60218 287.6875 64.21875 C 287.25119 63.84858 287.03125 63.431508 287.03125 62.96875 C 287.03124 62.33416 287.3149 61.780069 287.84375 61.34375 C 288.37258 60.894257 289.14303 60.687523 290.1875 60.6875 C 291.45671 60.687524 292.44229 60.967576 293.15625 61.5625 C 293.88339 62.157472 294.36896 63.128632 294.59375 64.4375 L 303.0625 63.9375 C 302.69228 60.923114 301.51921 58.718771 299.5625 57.34375 C 297.61898 55.955564 294.80887 55.250029 291.09375 55.25 z M 698.5 55.25 L 695.1875 61.1875 L 699.03125 61.1875 L 705.4375 55.25 L 698.5 55.25 z M 308.59375 55.75 L 308.59375 84.84375 L 317.5625 84.84375 L 317.5625 73.0625 L 327.40625 73.0625 L 327.40625 84.84375 L 336.40625 84.84375 L 336.40625 55.75 L 327.40625 55.75 L 327.40625 65.9375 L 317.5625 65.9375 L 317.5625 55.75 L 308.59375 55.75 z M 407.46875 55.75 L 407.46875 84.84375 L 415 84.84375 L 415 81.71875 C 416.04446 83.02764 417.02044 83.93029 417.90625 84.40625 C 419.08291 85.01442 420.36657 85.312499 421.78125 85.3125 C 423.43387 85.3125 424.93268 84.890619 426.28125 84.03125 C 427.643 83.158659 428.73315 81.838936 429.5 80.09375 C 430.2668 78.335351 430.62497 76.300481 430.625 74 C 430.62497 70.549308 429.80405 67.900248 428.125 66.0625 C 426.4459 64.211567 424.31488 63.281272 421.75 63.28125 C 420.5072 63.281272 419.37498 63.514447 418.34375 63.9375 C 417.32571 64.360596 416.40021 64.997623 415.59375 65.84375 L 415.59375 55.75 L 407.46875 55.75 z M 494.46875 55.75 L 494.46875 84.84375 L 503.46875 84.84375 L 503.46875 72.9375 L 514.75 72.9375 L 514.75 67.09375 L 503.46875 67.09375 L 503.46875 62 L 516.65625 62 L 516.65625 55.75 L 494.46875 55.75 z M 560.8125 55.75 L 560.8125 65.84375 C 560.01922 64.99762 559.09371 64.360596 558.0625 63.9375 C 557.04446 63.514446 555.91225 63.281272 554.65625 63.28125 C 552.07813 63.281272 549.96034 64.211566 548.28125 66.0625 C 546.61539 67.91347 545.78126 70.603392 545.78125 74.09375 C 545.78125 77.213936 546.52406 79.849777 548.03125 82.03125 C 549.55167 84.212731 551.75603 85.312499 554.625 85.3125 C 556.05287 85.3125 557.33652 85.014419 558.5 84.40625 C 559.37258 83.943513 560.34857 83.040864 561.40625 81.71875 L 561.40625 84.84375 L 568.96875 84.84375 L 568.96875 55.75 L 560.8125 55.75 z M 674.34375 55.75 L 674.34375 61.25 L 682.40625 61.25 L 682.40625 55.75 L 674.34375 55.75 z M 365.15625 63.28125 C 362.77644 63.281272 360.88341 63.528868 359.46875 64.03125 C 358.05409 64.520451 356.93147 65.276466 356.125 66.28125 C 355.31851 67.286071 354.90625 68.486798 354.90625 69.875 C 354.90625 71.144239 355.29088 72.289683 356.03125 73.28125 C 356.78485 74.272843 357.6971 74.951937 358.78125 75.375 C 359.87859 75.784863 361.82213 76.260826 364.625 76.75 C 366.50238 77.080535 367.65744 77.337752 368.09375 77.5625 C 368.7019 77.879813 369.03122 78.324526 369.03125 78.90625 C 369.03123 79.421878 368.77523 79.875007 368.3125 80.21875 C 367.71754 80.681493 366.89662 80.906255 365.8125 80.90625 C 364.82091 80.906254 364.03243 80.691104 363.4375 80.28125 C 362.84254 79.871401 362.36176 79.201925 362.03125 78.25 L 354.03125 79 C 354.49399 81.022832 355.53006 82.590154 357.15625 83.6875 C 358.79566 84.784851 361.55891 85.312502 365.40625 85.3125 C 368.12978 85.3125 370.27044 84.986778 371.84375 84.3125 C 373.43026 83.625004 374.58532 82.712741 375.3125 81.5625 C 376.05286 80.412269 376.40623 79.216343 376.40625 78 C 376.40623 76.796888 376.07568 75.692314 375.375 74.6875 C 374.68748 73.682708 373.68387 72.917074 372.375 72.375 C 371.06609 71.832948 369.05885 71.397846 366.375 71.09375 C 364.60336 70.882226 363.46633 70.670688 362.9375 70.40625 C 362.40865 70.141843 362.12499 69.73439 362.125 69.21875 C 362.12499 68.756028 362.34014 68.379824 362.75 68.0625 C 363.17306 67.73199 363.83774 67.562516 364.75 67.5625 C 365.64902 67.562517 366.42788 67.764441 367.0625 68.1875 C 367.52522 68.504823 367.86418 69.013238 368.0625 69.6875 L 375.71875 68.9375 C 375.18988 67.562523 374.49396 66.462755 373.6875 65.65625 C 372.89421 64.849783 371.92186 64.258432 370.71875 63.875 C 369.52883 63.49161 367.66825 63.281272 365.15625 63.28125 z M 391.34375 63.28125 C 387.65505 63.281272 384.6995 64.348584 382.53125 66.4375 C 380.36299 68.513228 379.28124 71.131037 379.28125 74.34375 C 379.28125 77.794463 380.59136 80.590161 383.15625 82.71875 C 385.24518 84.437493 387.95915 85.312499 391.34375 85.3125 C 395.13819 85.3125 398.10816 84.281239 400.25 82.21875 C 402.40501 80.143043 403.49996 77.489173 403.5 74.25 C 403.49997 71.367814 402.63819 68.938707 400.90625 66.96875 C 398.75119 64.522868 395.56125 63.281272 391.34375 63.28125 z M 447.28125 63.28125 C 446.14422 63.281272 445.18628 63.587762 444.40625 64.15625 C 443.63941 64.711556 442.91464 65.724782 442.1875 67.21875 L 442.1875 63.78125 L 434.625 63.78125 L 434.625 84.84375 L 442.75 84.84375 L 442.75 77.78125 C 442.74999 74.409881 443.16707 72.104576 444 70.875 C 444.58172 70.002422 445.37979 69.562512 446.4375 69.5625 C 446.99277 69.562515 447.76681 69.75963 448.71875 70.15625 L 451.21875 64.40625 C 449.80408 63.66589 448.47114 63.281272 447.28125 63.28125 z M 464.0625 63.28125 C 460.34736 63.281272 457.45912 64.307722 455.34375 66.34375 C 453.24159 68.379815 452.18749 71.051707 452.1875 74.34375 C 452.1875 76.65745 452.70555 78.656267 453.75 80.375 C 454.80768 82.080524 456.11899 83.331735 457.71875 84.125 C 459.31849 84.905045 461.52284 85.312499 464.3125 85.3125 C 467.52521 85.3125 469.99997 84.849757 471.71875 83.9375 C 473.43747 83.012025 474.90863 81.490381 476.125 79.375 L 468.15625 78.65625 C 467.65383 79.290868 467.18627 79.717551 466.75 79.96875 C 466.03605 80.365387 465.29324 80.562502 464.5 80.5625 C 463.24398 80.562504 462.21752 80.09976 461.4375 79.1875 C 460.8822 78.552894 460.52042 77.608178 460.375 76.3125 L 476.5625 76.3125 L 476.5625 75.375 C 476.56247 72.598582 476.09973 70.356978 475.1875 68.625 C 474.27522 66.893054 472.96393 65.568528 471.21875 64.65625 C 469.47355 63.744015 467.07689 63.281272 464.0625 63.28125 z M 530.5625 63.28125 C 526.84736 63.281272 523.92785 64.307722 521.8125 66.34375 C 519.71034 68.379815 518.65626 71.051707 518.65625 74.34375 C 518.65625 76.65745 519.17428 78.656267 520.21875 80.375 C 521.27643 82.080524 522.61901 83.331735 524.21875 84.125 C 525.81849 84.905045 527.9916 85.312499 530.78125 85.3125 C 533.99396 85.3125 536.46874 84.849757 538.1875 83.9375 C 539.90622 83.012025 541.37736 81.490381 542.59375 79.375 L 534.625 78.65625 C 534.12258 79.290868 533.655 79.717551 533.21875 79.96875 C 532.5048 80.365387 531.76197 80.562502 530.96875 80.5625 C 529.71273 80.562504 528.68626 80.09976 527.90625 79.1875 C 527.35095 78.552894 527.02041 77.608178 526.875 76.3125 L 543.03125 76.3125 L 543.03125 75.375 C 543.03122 72.598582 542.59974 70.356978 541.6875 68.625 C 540.77522 66.893054 539.43266 65.568528 537.6875 64.65625 C 535.9423 63.744015 533.5769 63.281272 530.5625 63.28125 z M 584.8125 63.28125 C 581.09736 63.281272 578.17785 64.307722 576.0625 66.34375 C 573.96034 68.379815 572.90626 71.051707 572.90625 74.34375 C 572.90625 76.65745 573.42428 78.656267 574.46875 80.375 C 575.52643 82.080524 576.86901 83.331735 578.46875 84.125 C 580.06849 84.905045 582.27285 85.312499 585.0625 85.3125 C 588.27521 85.3125 590.71874 84.849757 592.4375 83.9375 C 594.15622 83.012025 595.62736 81.490381 596.84375 79.375 L 588.90625 78.65625 C 588.40383 79.290868 587.93625 79.717551 587.5 79.96875 C 586.78605 80.365387 586.01197 80.562502 585.21875 80.5625 C 583.96273 80.562504 582.93626 80.09976 582.15625 79.1875 C 581.60095 78.552894 581.27041 77.608178 581.125 76.3125 L 597.3125 76.3125 L 597.3125 75.375 C 597.31247 72.598582 596.84974 70.356978 595.9375 68.625 C 595.02522 66.893054 593.68266 65.568528 591.9375 64.65625 C 590.1923 63.744015 587.8269 63.281272 584.8125 63.28125 z M 613.8125 63.28125 C 612.67547 63.281272 611.71751 63.587762 610.9375 64.15625 C 610.17066 64.711556 609.41462 65.724782 608.6875 67.21875 L 608.6875 63.78125 L 601.125 63.78125 L 601.125 84.84375 L 609.25 84.84375 L 609.25 77.78125 C 609.24999 74.409881 609.66708 72.104576 610.5 70.875 C 611.08172 70.002422 611.87978 69.562512 612.9375 69.5625 C 613.49277 69.562515 614.2668 69.75963 615.21875 70.15625 L 617.71875 64.40625 C 616.30408 63.66589 615.0024 63.281272 613.8125 63.28125 z M 630.3125 63.28125 C 628.80528 63.281272 627.38939 63.400262 626.09375 63.625 C 624.79808 63.84978 623.77161 64.183916 623.03125 64.59375 C 622 65.162277 621.21154 65.813724 620.65625 66.59375 C 620.11418 67.360591 619.69712 68.432712 619.40625 69.78125 L 627.125 70.59375 C 627.4423 69.68151 627.85935 69.049292 628.375 68.71875 C 629.03604 68.295691 630.02162 68.093766 631.34375 68.09375 C 632.37498 68.093767 633.1214 68.290885 633.53125 68.6875 C 633.94109 69.084149 634.12498 69.789685 634.125 70.78125 C 633.12018 71.177897 632.18028 71.49881 631.28125 71.75 C 630.3822 71.987993 628.40259 72.391838 625.375 73 C 622.84977 73.502413 621.1262 74.281264 620.1875 75.3125 C 619.2488 76.343754 618.78122 77.650255 618.78125 79.25 C 618.78125 80.955525 619.42308 82.399047 620.71875 83.5625 C 622.02763 84.725957 623.95675 85.312499 626.46875 85.3125 C 628.35936 85.3125 630.00959 85.019224 631.4375 84.4375 C 632.48195 84.001205 633.53606 83.26803 634.59375 82.25 C 634.68628 82.858172 634.78244 83.302886 634.875 83.59375 C 634.96753 83.871394 635.16463 84.301686 635.46875 84.84375 L 643.03125 84.84375 C 642.60815 83.971159 642.31969 83.242785 642.1875 82.6875 C 642.06849 82.118996 642.03121 81.335333 642.03125 80.34375 L 642.03125 71.0625 C 642.03123 70.070933 641.83412 69.021645 641.4375 67.9375 C 641.04084 66.840167 640.49995 66.00122 639.8125 65.40625 C 638.83412 64.546899 637.59252 63.983192 636.125 63.71875 C 634.65744 63.441128 632.73195 63.281272 630.3125 63.28125 z M 658.21875 63.28125 C 655.75961 63.281272 653.72955 63.602187 652.15625 64.25 C 651.16466 64.659874 650.18871 65.310122 649.25 66.15625 C 648.3113 66.989197 647.57332 67.942327 647.03125 69 C 646.29087 70.441114 645.93747 72.238 645.9375 74.40625 C 645.9375 76.48197 646.23557 78.15025 646.84375 79.40625 C 647.45192 80.662258 648.30408 81.748803 649.375 82.6875 C 650.4459 83.612978 651.70672 84.295674 653.1875 84.71875 C 654.68147 85.128604 656.54686 85.312502 658.78125 85.3125 C 661.09493 85.3125 663.00601 84.991584 664.5 84.34375 C 666.00718 83.695917 667.22231 82.788458 668.1875 81.625 C 669.15262 80.448327 669.85817 79.068505 670.28125 77.46875 L 662.59375 76.59375 C 662.23676 77.71755 661.6959 78.551692 660.96875 79.09375 C 660.25479 79.63582 659.37015 79.906258 658.3125 79.90625 C 657.04326 79.906255 656.00719 79.46154 655.1875 78.5625 C 654.36778 77.663473 653.96873 76.35697 653.96875 74.625 C 653.96874 72.681511 654.36778 71.233183 655.1875 70.28125 C 656.02042 69.316125 657.10216 68.812514 658.4375 68.8125 C 659.49517 68.812516 660.34735 69.068526 660.96875 69.53125 C 661.60335 69.980782 662.04325 70.632229 662.28125 71.53125 L 669.875 70.53125 C 669.14782 68.16469 667.87377 66.354583 666.0625 65.125 C 664.26441 63.895459 661.65622 63.281272 658.21875 63.28125 z M 698.65625 63.28125 C 694.96755 63.281272 692.01202 64.348584 689.84375 66.4375 C 687.67549 68.513228 686.59375 71.131037 686.59375 74.34375 C 686.59375 77.794463 687.8726 80.590161 690.4375 82.71875 C 692.52643 84.437493 695.27167 85.312499 698.65625 85.3125 C 702.45069 85.3125 705.42068 84.281239 707.5625 82.21875 C 709.71751 80.143043 710.81244 77.489173 710.8125 74.25 C 710.81247 71.367814 709.91943 68.938707 708.1875 66.96875 C 706.03244 64.522868 702.87373 63.281272 698.65625 63.28125 z M 729.84375 63.28125 C 728.1911 63.281272 726.80644 63.610599 725.65625 64.21875 C 724.506 64.813719 723.37378 65.786084 722.25 67.1875 L 722.25 63.78125 L 714.71875 63.78125 L 714.71875 84.84375 L 722.8125 84.84375 L 722.8125 74.71875 C 722.81249 72.801703 723.11058 71.459142 723.71875 70.71875 C 724.32691 69.978383 725.11536 69.625013 726.09375 69.625 C 726.97955 69.625015 727.66703 69.882232 728.15625 70.4375 C 728.64541 70.979579 728.87497 71.927903 728.875 73.25 L 728.875 84.84375 L 737 84.84375 L 737 71.4375 C 736.99998 68.661086 736.36296 66.60338 735.09375 65.28125 C 733.83772 63.94594 732.07809 63.281272 729.84375 63.28125 z M 674.34375 63.78125 L 674.34375 84.84375 L 682.40625 84.84375 L 682.40625 63.78125 L 674.34375 63.78125 z M 464.40625 68.0625 C 465.51681 68.062517 466.41946 68.419488 467.09375 69.09375 C 467.78123 69.768041 468.18508 70.877422 468.34375 72.4375 L 460.40625 72.4375 C 460.53845 71.18151 460.85457 70.22838 461.34375 69.59375 C 462.11056 68.575742 463.1238 68.062513 464.40625 68.0625 z M 530.875 68.0625 C 531.98556 68.062517 532.88822 68.419488 533.5625 69.09375 C 534.24998 69.768041 534.68509 70.877422 534.84375 72.4375 L 526.875 72.4375 C 527.0072 71.18151 527.32331 70.22838 527.8125 69.59375 C 528.57931 68.575742 529.59253 68.062513 530.875 68.0625 z M 585.15625 68.0625 C 586.26681 68.062517 587.13822 68.419488 587.8125 69.09375 C 588.49998 69.768041 588.93509 70.877422 589.09375 72.4375 L 581.125 72.4375 C 581.2572 71.18151 581.57331 70.22838 582.0625 69.59375 C 582.82931 68.575742 583.87378 68.062513 585.15625 68.0625 z M 391.4375 68.84375 C 392.54806 68.843766 393.49637 69.288477 394.25 70.1875 C 395.00359 71.073327 395.37497 72.425501 395.375 74.25 C 395.37498 76.206731 395.00357 77.645446 394.25 78.53125 C 393.5096 79.417069 392.5697 79.843757 391.40625 79.84375 C 390.256 79.843755 389.29806 79.399039 388.53125 78.5 C 387.77764 77.600973 387.37498 76.221151 387.375 74.34375 C 387.37499 72.492809 387.76441 71.117797 388.53125 70.21875 C 389.29806 69.30651 390.2608 68.843767 391.4375 68.84375 z M 698.75 68.84375 C 699.86056 68.843766 700.80888 69.288477 701.5625 70.1875 C 702.31609 71.073327 702.68746 72.425501 702.6875 74.25 C 702.68748 76.206731 702.31609 77.645446 701.5625 78.53125 C 700.8221 79.417069 699.85096 79.843757 698.6875 79.84375 C 697.53725 79.843755 696.57929 79.399039 695.8125 78.5 C 695.05889 77.600973 694.6875 76.221151 694.6875 74.34375 C 694.68749 72.492809 695.07689 71.117797 695.84375 70.21875 C 696.61056 69.30651 697.57331 68.843767 698.75 68.84375 z M 419.28125 69.3125 C 420.19349 69.312516 420.95913 69.719971 421.59375 70.5 C 422.24157 71.280058 422.56247 72.490406 422.5625 74.15625 C 422.56248 76.046876 422.22355 77.412273 421.5625 78.21875 C 420.91465 79.012022 420.12136 79.406253 419.15625 79.40625 C 418.11177 79.406255 417.24999 78.993992 416.5625 78.1875 C 415.88821 77.367799 415.53124 76.061296 415.53125 74.25 C 415.53124 72.597375 415.87499 71.369002 416.5625 70.5625 C 417.26321 69.742807 418.18388 69.312516 419.28125 69.3125 z M 557.15625 69.3125 C 558.22714 69.312516 559.11175 69.742809 559.8125 70.5625 C 560.5132 71.369 560.87496 72.597373 560.875 74.25 C 560.87498 76.07452 560.53121 77.38102 559.84375 78.1875 C 559.15624 78.993993 558.28122 79.406253 557.25 79.40625 C 556.28485 79.406255 555.47357 79.012024 554.8125 78.21875 C 554.16466 77.412271 553.84376 76.125001 553.84375 74.40625 C 553.84374 72.56853 554.17785 71.280059 554.8125 70.5 C 555.4471 69.71997 556.21755 69.312516 557.15625 69.3125 z M 634.125 74.84375 L 634.125 76.125 C 634.12498 77.129811 633.95551 77.959147 633.625 78.59375 C 633.30768 79.215147 632.78005 79.719961 632 80.15625 C 631.23316 80.59255 630.39904 80.812501 629.5 80.8125 C 628.64062 80.812504 627.98076 80.61539 627.53125 80.21875 C 627.09494 79.808901 626.87497 79.290867 626.875 78.65625 C 626.87499 78.100971 627.08172 77.623803 627.53125 77.1875 C 627.96754 76.764433 629.0168 76.311302 630.65625 75.875 C 631.85936 75.570924 633.01441 75.240391 634.125 74.84375 z "
         style="font-size:40.61520767px;font-style:normal;font-variant:normal;font-weight:bold;font-stretch:normal;text-align:center;line-height:100%;writing-mode:lr-tb;text-anchor:middle;fill:url(#linearGradient3195);fill-opacity:1;stroke:none;stroke-width:1px;stroke-linecap:butt;stroke-linejoin:miter;stroke-opacity:1;font-family:Arial Black"
         id="path3189"
         d="M 261.71875,52.75 C 258.47666,52.750032 255.78996,53.146297 253.5625,54.125 C 251.48193,55.030315 249.73409,56.363397 248.5625,58.15625 C 247.45665,59.857585 246.87499,61.816415 246.875,63.78125 C 246.875,66.670426 248.1111,69.368104 250.28125,71.25 C 250.8341,71.733204 251.6128,72.069755 252.28125,72.46875 L 248.125,72.71875 C 247.44991,72.758688 246.81976,73.07028 246.37819,73.582494 C 245.93663,74.094709 245.72128,74.763893 245.78125,75.4375 C 246.07518,78.871899 247.43863,81.938638 249.75,84.25 C 252.41603,86.916042 256.5196,87.812502 261.78125,87.8125 C 264.82293,87.8125 267.48922,87.40491 269.78125,86.40625 C 272.0133,85.417758 273.91338,83.897751 275.21875,81.90625 C 275.67361,81.21228 275.92289,80.444237 276.21875,79.6875 C 276.89842,81.380813 277.80239,82.958647 279.09375,84.25 C 281.76946,86.925722 285.89461,87.812502 291.15625,87.8125 C 294.19793,87.8125 296.86422,87.404897 299.15625,86.40625 C 301.39783,85.413538 303.26983,83.878377 304.5625,81.90625 C 305.32344,80.745304 305.77975,79.473254 306.09375,78.15625 L 306.09375,84.84375 C 306.09448,86.224159 307.21334,87.34302 308.59375,87.34375 L 317.5625,87.34375 C 318.94291,87.34302 320.06177,86.224159 320.0625,84.84375 L 320.0625,75.5625 L 324.90625,75.5625 L 324.90625,84.84375 C 324.90698,86.224159 326.02584,87.34302 327.40625,87.34375 L 336.40625,87.34375 C 337.78666,87.34302 338.90552,86.224159 338.90625,84.84375 L 338.90625,55.75 C 338.90552,54.369591 337.78666,53.25073 336.40625,53.25 L 327.40625,53.25 C 326.02584,53.25073 324.90698,54.369591 324.90625,55.75 L 324.90625,63.4375 L 320.0625,63.4375 L 320.0625,55.75 C 320.06177,54.369591 318.94291,53.25073 317.5625,53.25 L 308.59375,53.25 C 307.21334,53.25073 306.09448,54.369591 306.09375,55.75 L 306.09375,72.40625 C 305.84209,71.486082 305.47038,70.574731 304.96875,69.75 C 304.17507,68.422695 302.98184,67.423357 301.625,66.53125 L 303.21875,66.4375 C 303.90641,66.391023 304.54443,66.062856 304.98216,65.530474 C 305.4199,64.998092 305.61856,64.308681 305.53125,63.625 C 305.10109,60.122578 303.60079,57.140132 301,55.3125 C 298.45476,53.49453 295.12551,52.750031 291.09375,52.75 C 287.85166,52.750032 285.16496,53.146297 282.9375,54.125 C 280.85694,55.030313 279.10909,56.363379 277.9375,58.15625 C 276.8581,59.816898 276.23162,61.741219 276.21875,63.71875 C 276.20895,63.687297 276.19853,63.656041 276.1875,63.625 C 275.75734,60.122572 274.25703,57.140131 271.65625,55.3125 C 269.10069,53.48716 265.75051,52.750031 261.71875,52.75 z M 698.25,52.75 C 697.433,52.833134 696.70885,53.312007 696.3125,54.03125 L 693,59.96875 C 692.69076,60.519665 692.60145,61.167192 692.75,61.78125 C 690.99653,62.422548 689.41661,63.350556 688.09375,64.625 C 686.59614,66.058696 685.57116,67.830382 684.90625,69.75 L 684.90625,63.78125 C 684.90907,63.331012 684.79031,62.888361 684.5625,62.5 C 684.78495,62.120783 684.90351,61.689636 684.90625,61.25 L 684.90625,55.75 C 684.90552,54.369591 683.78666,53.25073 682.40625,53.25 L 674.34375,53.25 C 672.96334,53.25073 671.84448,54.369591 671.84375,55.75 L 671.84375,61.25 C 671.84093,61.700238 671.95969,62.142889 672.1875,62.53125 C 671.96505,62.910467 671.84649,63.341614 671.84375,63.78125 L 671.84375,68.90625 C 670.92471,66.515134 669.50757,64.446555 667.46875,63.0625 C 665.06078,61.41592 661.95413,60.781274 658.21875,60.78125 C 655.54203,60.781274 653.22355,61.112014 651.21875,61.9375 C 651.20833,61.937435 651.19792,61.937435 651.1875,61.9375 C 649.8683,62.482793 648.66823,63.315821 647.5625,64.3125 C 646.40207,65.342197 645.49664,66.508871 644.8125,67.84375 C 644.55083,68.353084 644.43134,68.949339 644.25,69.5 C 644.12868,68.692399 644.0748,67.89616 643.78125,67.09375 C 643.27603,65.696088 642.51378,64.43149 641.4375,63.5 C 640.07832,62.306173 638.39822,61.58079 636.5625,61.25 C 634.87465,60.930705 632.8421,60.781273 630.3125,60.78125 C 628.67367,60.781274 627.10774,60.904479 625.65625,61.15625 C 624.16849,61.414355 622.9059,61.800988 621.8125,62.40625 C 621.18692,62.75113 620.62767,63.147937 620.09375,63.59375 C 620.08333,63.593685 620.07292,63.593685 620.0625,63.59375 C 619.85978,62.991109 619.43518,62.488285 618.875,62.1875 C 617.21718,61.319891 615.54132,60.781282 613.8125,60.78125 C 612.50517,60.781275 611.27967,61.171952 610.1875,61.78125 C 609.75471,61.45678 609.22841,61.281345 608.6875,61.28125 L 601.125,61.28125 C 599.74459,61.28198 598.62573,62.400841 598.625,63.78125 L 598.625,68.8125 C 598.4537,68.372189 598.37233,67.878997 598.15625,67.46875 C 597.01747,65.306807 595.25301,63.566248 593.09375,62.4375 C 590.83404,61.256327 588.08285,60.781274 584.8125,60.78125 C 580.63669,60.781275 576.95365,61.989135 574.3125,64.53125 C 574.31243,64.541667 574.31243,64.552083 574.3125,64.5625 C 573.05297,65.782427 572.12393,67.207261 571.46875,68.8125 L 571.46875,55.75 C 571.46802,54.369591 570.34916,53.25073 568.96875,53.25 L 560.8125,53.25 C 559.43209,53.25073 558.31323,54.369591 558.3125,55.75 L 558.3125,61.5 C 557.16064,61.105766 555.97457,60.781273 554.65625,60.78125 C 551.47648,60.781277 548.53954,62.057825 546.4375,64.375 C 545.4293,65.495228 544.69838,66.837067 544.1875,68.3125 C 544.07088,68.044691 544.04151,67.725561 543.90625,67.46875 C 542.76747,65.306807 541.00301,63.566248 538.84375,62.4375 C 536.58404,61.256327 533.83285,60.781274 530.5625,60.78125 C 526.38669,60.781275 522.70365,61.989135 520.0625,64.53125 C 520.06243,64.541667 520.06243,64.552083 520.0625,64.5625 C 518.82008,65.765856 517.90449,67.170819 517.25,68.75 L 517.25,67.09375 C 517.24927,65.713341 516.13041,64.59448 514.75,64.59375 L 505.96875,64.59375 L 505.96875,64.5 L 516.65625,64.5 C 518.03666,64.49927 519.15552,63.380409 519.15625,62 L 519.15625,55.75 C 519.15552,54.369591 518.03666,53.25073 516.65625,53.25 L 494.46875,53.25 C 493.08834,53.25073 491.96948,54.369591 491.96875,55.75 L 491.96875,84.84375 C 491.96948,86.224159 493.08834,87.34302 494.46875,87.34375 L 503.46875,87.34375 C 504.84916,87.34302 505.96802,86.224159 505.96875,84.84375 L 505.96875,75.4375 L 514.75,75.4375 C 515.2802,75.430724 515.79454,75.255632 516.21875,74.9375 C 516.30736,77.392037 516.89243,79.710665 518.09375,81.6875 C 519.36229,83.733045 521.05521,85.364146 523.09375,86.375 C 523.10417,86.375065 523.11458,86.375065 523.125,86.375 C 525.21836,87.395737 527.74806,87.812499 530.78125,87.8125 C 534.23412,87.8125 537.08745,87.370402 539.375,86.15625 C 539.37507,86.145833 539.37507,86.135417 539.375,86.125 C 541.54579,84.9561 543.30351,83.091992 544.6875,80.71875 C 545.07423,81.648895 545.39704,82.610015 545.96875,83.4375 C 545.96868,83.447917 545.96868,83.458333 545.96875,83.46875 C 547.91212,86.257073 551.11687,87.812499 554.625,87.8125 C 556.40095,87.8125 558.1208,87.427605 559.65625,86.625 C 560.12299,87.08445 560.75131,87.342512 561.40625,87.34375 L 568.96875,87.34375 C 570.34916,87.34302 571.46802,86.224159 571.46875,84.84375 L 571.46875,79.625 C 571.73744,80.320927 571.95692,81.050942 572.34375,81.6875 C 573.61229,83.733045 575.30521,85.364146 577.34375,86.375 C 577.35417,86.375065 577.36458,86.375065 577.375,86.375 C 579.47989,87.401361 582.02931,87.812499 585.0625,87.8125 C 588.51537,87.8125 591.34854,87.364516 593.625,86.15625 C 593.62507,86.145833 593.62507,86.135417 593.625,86.125 C 595.65476,85.032039 597.28341,83.282576 598.625,81.125 L 598.625,84.84375 C 598.62573,86.224159 599.74459,87.34302 601.125,87.34375 L 609.25,87.34375 C 610.63041,87.34302 611.74927,86.224159 611.75,84.84375 L 611.75,77.78125 C 611.74999,74.616165 612.32624,72.63002 612.5625,72.28125 C 612.57301,72.270926 612.58343,72.260508 612.59375,72.25 C 612.80505,71.933052 612.57324,72.062504 612.9375,72.0625 C 612.90093,72.062499 613.47078,72.144095 614.25,72.46875 C 615.44348,72.977003 616.82745,72.488541 617.4375,71.34375 C 617.85924,71.876796 618.47975,72.215257 619.15625,72.28125 L 620.09375,72.375 C 619.47725,72.756124 618.83053,73.090229 618.34375,73.625 C 616.97551,75.128145 616.28121,77.16288 616.28125,79.25 C 616.28125,81.583001 617.30714,83.86127 619.0625,85.4375 C 620.97146,87.134366 623.56742,87.812499 626.46875,87.8125 C 628.61801,87.8125 630.59556,87.474937 632.375,86.75 C 632.38542,86.750065 632.39583,86.750065 632.40625,86.75 C 632.73225,86.613821 632.9987,86.295992 633.3125,86.125 C 633.76555,86.883571 634.58519,87.346849 635.46875,87.34375 L 643.03125,87.34375 C 643.89293,87.343695 644.69391,86.900128 645.15117,86.169782 C 645.60843,85.439437 645.65758,84.525156 645.28125,83.75 C 644.90183,82.967495 644.68147,82.330944 644.625,82.09375 C 644.57897,81.87389 644.53121,81.272592 644.53125,80.34375 C 644.55422,80.393377 644.56993,80.45081 644.59375,80.5 C 645.35473,82.071586 646.42297,83.426709 647.71875,84.5625 C 647.72907,84.573008 647.73949,84.583426 647.75,84.59375 C 649.09531,85.756376 650.69644,86.609702 652.5,87.125 C 652.51042,87.125065 652.52083,87.125065 652.53125,87.125 C 654.35339,87.624884 656.40963,87.812502 658.78125,87.8125 C 661.3262,87.8125 663.56837,87.462608 665.5,86.625 C 667.3376,85.835142 668.90923,84.684258 670.125,83.21875 C 670.8306,82.358489 671.37063,81.377235 671.84375,80.34375 L 671.84375,84.84375 C 671.84448,86.224159 672.96334,87.34302 674.34375,87.34375 L 682.40625,87.34375 C 683.78666,87.34302 684.90552,86.224159 684.90625,84.84375 L 684.90625,78.84375 C 685.67567,81.075348 686.96292,83.095368 688.84375,84.65625 C 691.44128,86.793461 694.84061,87.812499 698.65625,87.8125 C 702.90385,87.8125 706.6386,86.606113 709.3125,84.03125 C 710.58674,82.803903 711.54293,81.3504 712.21875,79.75 L 712.21875,84.84375 C 712.21948,86.224159 713.33834,87.34302 714.71875,87.34375 L 722.8125,87.34375 C 724.19291,87.34302 725.31177,86.224159 725.3125,84.84375 L 725.3125,74.71875 C 725.31249,73.060978 725.73493,72.216715 725.65625,72.3125 C 725.83918,72.089801 725.71756,72.125005 726.09375,72.125 C 726.4954,72.125007 726.30707,72.123061 726.28125,72.09375 C 726.29157,72.104258 726.30199,72.114676 726.3125,72.125 C 726.09044,71.878913 726.37498,72.217389 726.375,73.25 L 726.375,84.84375 C 726.37573,86.224159 727.49459,87.34302 728.875,87.34375 L 737,87.34375 C 738.38041,87.34302 739.49927,86.224159 739.5,84.84375 L 739.5,71.4375 C 739.49998,68.278531 738.78374,65.518273 736.90625,63.5625 C 735.13528,61.679749 732.57409,60.781277 729.84375,60.78125 C 727.85886,60.781276 726.05361,61.178544 724.5,62 C 724.39013,62.056833 724.29557,62.157688 724.1875,62.21875 C 723.71602,61.63015 723.00414,61.285692 722.25,61.28125 L 714.71875,61.28125 C 713.33834,61.28198 712.21948,62.400841 712.21875,63.78125 L 712.21875,68.9375 C 711.68123,67.629529 711.00248,66.381664 710.0625,65.3125 C 708.18276,63.179087 705.63125,61.847693 702.65625,61.21875 L 707.125,57.09375 C 707.88393,56.396882 708.1379,55.305945 707.7648,54.345534 C 707.39169,53.385123 706.46784,52.751757 705.4375,52.75 L 698.5,52.75 C 698.41672,52.745833 698.33328,52.745833 698.25,52.75 L 698.25,52.75 z M 407.21875,53.25 C 405.9368,53.379447 404.96291,54.461541 404.96875,55.75 L 404.96875,69.0625 C 404.43613,67.712403 403.75101,66.415533 402.78125,65.3125 C 400.09442,62.263088 396.05211,60.781275 391.34375,60.78125 C 387.17261,60.781275 383.46078,62.043516 380.78125,64.625 C 379.65097,65.707044 378.81613,67.00198 378.15625,68.375 C 378.13321,68.258334 378.10188,68.143459 378.0625,68.03125 C 377.43013,66.3872 376.57036,64.976674 375.46875,63.875 C 374.38759,62.775884 373.00925,61.990958 371.46875,61.5 C 369.80864,60.965114 367.80785,60.781273 365.15625,60.78125 C 362.60298,60.781274 360.45851,61.036374 358.625,61.6875 C 356.8444,62.303247 355.31983,63.30797 354.1875,64.71875 C 353.03264,66.157616 352.40625,67.991629 352.40625,69.875 C 352.40625,71.649522 352.98688,73.382537 354.03125,74.78125 C 354.48174,75.374005 355.02847,75.889256 355.59375,76.34375 L 353.8125,76.5 C 353.08945,76.562856 352.42935,76.936667 352.00354,77.524407 C 351.57773,78.112147 351.42819,78.855857 351.59375,79.5625 C 352.17484,82.102673 353.61679,84.310518 355.75,85.75 C 355.74993,85.760417 355.74993,85.770833 355.75,85.78125 C 358.16101,87.395077 361.33023,87.812502 365.40625,87.8125 C 368.32919,87.8125 370.7835,87.507969 372.84375,86.625 C 372.84382,86.614583 372.84382,86.604167 372.84375,86.59375 C 374.76453,85.761401 376.39026,84.56276 377.4375,82.90625 C 377.88426,82.212158 378.1908,81.472614 378.4375,80.71875 C 379.22821,82.18561 380.23213,83.552184 381.5625,84.65625 C 384.15057,86.78568 387.52809,87.812499 391.34375,87.8125 C 395.59135,87.8125 399.32609,86.606097 402,84.03125 C 403.30865,82.770758 404.29186,81.277104 404.96875,79.625 L 404.96875,84.84375 C 404.96948,86.224159 406.08834,87.34302 407.46875,87.34375 L 415,87.34375 C 415.64409,87.334417 416.25976,87.076959 416.71875,86.625 C 416.72917,86.625065 416.73958,86.625065 416.75,86.625 C 418.28966,87.420791 420.01525,87.812499 421.78125,87.8125 C 423.85952,87.8125 425.88101,87.236348 427.625,86.125 C 429.44073,84.961503 430.85002,83.213024 431.78125,81.09375 C 431.93583,80.739275 431.99914,80.336209 432.125,79.96875 L 432.125,84.84375 C 432.12573,86.224159 433.24459,87.34302 434.625,87.34375 L 442.75,87.34375 C 444.13041,87.34302 445.24927,86.224159 445.25,84.84375 L 445.25,77.78125 C 445.24999,74.61616 445.82625,72.630008 446.0625,72.28125 C 446.07301,72.270926 446.08343,72.260508 446.09375,72.25 C 446.30504,71.933063 446.07325,72.062504 446.4375,72.0625 C 446.40093,72.062499 446.9708,72.144101 447.75,72.46875 C 448.437,72.755234 449.2159,72.72087 449.875,72.375 C 449.79203,73.026411 449.6875,73.666365 449.6875,74.34375 C 449.6875,77.030786 450.32425,79.547 451.625,81.6875 C 452.88191,83.714281 454.54356,85.358384 456.59375,86.375 C 456.60417,86.375065 456.61458,86.375065 456.625,86.375 C 458.72989,87.401359 461.2793,87.812499 464.3125,87.8125 C 467.76537,87.8125 470.6187,87.370388 472.90625,86.15625 C 472.90632,86.145833 472.90632,86.135417 472.90625,86.125 C 475.10801,84.939425 476.88884,83.046539 478.28125,80.625 C 478.72756,79.851424 478.72756,78.898576 478.28125,78.125 C 478.7791,77.65346 479.06153,76.998212 479.0625,76.3125 L 479.0625,75.375 C 479.06247,72.320697 478.57061,69.679431 477.40625,67.46875 C 476.27846,65.327658 474.54515,63.571929 472.375,62.4375 C 470.10443,61.250647 467.33284,60.781274 464.0625,60.78125 C 459.94614,60.781274 456.3419,61.976634 453.71875,64.4375 C 453.73102,63.494095 453.21141,62.62405 452.375,62.1875 C 450.70377,61.312872 449.01007,60.781282 447.28125,60.78125 C 445.97875,60.781275 444.74572,61.145138 443.65625,61.75 C 443.22823,61.443002 442.71423,61.278957 442.1875,61.28125 L 434.625,61.28125 C 433.24459,61.28198 432.12573,62.400841 432.125,63.78125 L 432.125,68.0625 C 431.61632,66.691981 430.93123,65.428454 429.96875,64.375 C 427.86231,62.05299 424.91964,60.781277 421.75,60.78125 C 420.44003,60.781273 419.24884,61.1079 418.09375,61.5 L 418.09375,55.75 C 418.09302,54.369591 416.97416,53.25073 415.59375,53.25 L 407.46875,53.25 C 407.38547,53.245833 407.30203,53.245833 407.21875,53.25 z M 276.21875,63.78125 C 276.21875,66.69334 277.49761,69.378089 279.65625,71.25 C 280.20936,71.733433 280.987,72.068442 281.65625,72.46875 L 277.46875,72.71875 C 277.25594,72.733594 277.0459,72.775602 276.84375,72.84375 C 276.59697,71.766975 276.20536,70.704182 275.625,69.75 C 274.83132,68.422695 273.63809,67.423357 272.28125,66.53125 L 273.875,66.4375 C 274.53839,66.396985 275.15838,66.094119 275.59811,65.595758 C 276.03784,65.097397 276.26115,64.444521 276.21875,63.78125 z M 377.25,70.90625 C 377.10314,71.498444 377.00654,72.098789 376.9375,72.71875 C 376.56455,72.269828 376.17619,71.830513 375.71875,71.46875 L 375.96875,71.4375 C 376.43737,71.384737 376.88154,71.200572 377.25,70.90625 L 377.25,70.90625 z M 658.4375,71.3125 C 659.3702,71.346115 659.41607,71.530516 659.53125,71.5625 C 659.68068,71.668355 659.75562,71.70532 659.875,72.15625 C 660.19415,73.363187 661.35437,74.150003 662.59375,74 L 670.1875,73 C 670.84155,72.917943 671.43676,72.581028 671.84375,72.0625 L 671.84375,75.5 C 671.47529,75.205678 671.03112,75.021513 670.5625,74.96875 L 662.875,74.09375 C 661.68493,73.966467 660.57146,74.700049 660.21875,75.84375 C 659.97433,76.61319 659.68662,76.931334 659.46875,77.09375 C 659.22818,77.276399 658.94379,77.406255 658.3125,77.40625 C 657.62748,77.406253 657.42065,77.302101 657.03125,76.875 C 656.75208,76.568816 656.46873,75.972787 656.46875,74.625 C 656.46874,73.023867 656.83065,72.211782 657.09375,71.90625 C 657.50804,71.426206 657.73098,71.312507 658.4375,71.3125 z M 391.4375,71.34375 C 392.26541,71.388769 392.33892,71.788373 392.34375,71.8125 C 392.54618,72.050455 392.87498,72.764879 392.875,74.25 C 392.87498,75.890255 392.49408,76.729545 392.34375,76.90625 C 392.34368,76.916667 392.34368,76.927083 392.34375,76.9375 C 392.01785,77.327406 391.95819,77.343753 391.40625,77.34375 C 390.90066,77.343752 390.80118,77.301387 390.4375,76.875 C 390.21149,76.605373 389.87498,75.863522 389.875,74.34375 C 389.87499,72.843617 390.21644,72.102918 390.4375,71.84375 C 390.43757,71.833333 390.43757,71.822917 390.4375,71.8125 C 390.80889,71.370668 390.91649,71.343758 391.4375,71.34375 z M 698.75,71.34375 C 699.57792,71.388781 699.65142,71.788379 699.65625,71.8125 C 699.85868,72.050447 700.18747,72.764863 700.1875,74.25 C 700.18748,75.890272 699.80656,76.729565 699.65625,76.90625 C 699.65618,76.916667 699.65618,76.927083 699.65625,76.9375 C 699.35255,77.300844 699.23946,77.343753 698.6875,77.34375 C 698.18191,77.343752 698.08238,77.301347 697.71875,76.875 C 697.51462,76.631476 697.1875,75.891307 697.1875,74.34375 C 697.18749,72.843599 697.52895,72.102898 697.75,71.84375 C 697.75007,71.833333 697.75007,71.822917 697.75,71.8125 C 698.12139,71.370676 698.229,71.343758 698.75,71.34375 z M 419.28125,71.8125 C 419.44877,71.812503 419.37404,71.746872 419.65625,72.09375 C 419.75104,72.207888 420.06248,72.81158 420.0625,74.15625 C 420.06248,75.747979 419.67438,76.564758 419.625,76.625 C 419.35307,76.957966 419.44026,76.906251 419.15625,76.90625 C 418.7699,76.906252 418.75982,76.903952 418.46875,76.5625 C 418.34766,76.415292 418.03124,75.732682 418.03125,74.25 C 418.03124,72.944202 418.3276,72.353081 418.46875,72.1875 C 418.74726,71.861693 418.83766,71.812506 419.28125,71.8125 z M 557.15625,71.8125 C 557.71643,71.779499 557.97732,72.141822 557.9375,72.1875 C 558.09309,72.366588 558.37497,72.962333 558.375,74.25 C 558.37498,75.760371 558.0269,76.457621 557.9375,76.5625 C 557.65669,76.891912 557.61463,76.906251 557.25,76.90625 C 556.96593,76.906251 556.99646,76.958244 556.71875,76.625 C 556.63214,76.517182 556.34376,75.813699 556.34375,74.40625 C 556.34374,72.871678 556.69505,72.161292 556.75,72.09375 C 557.02828,71.751698 556.94127,71.812504 557.15625,71.8125 z M 259.625,75.28125 C 259.67708,75.302083 259.80208,75.34375 259.8125,75.34375 C 262.07138,75.840222 263.42797,76.597668 263.25,76.4375 C 263.51989,76.680406 263.4375,76.621303 263.4375,76.625 C 263.4375,76.657905 263.56294,76.572144 263.25,76.84375 C 263.11408,76.961374 262.81517,77.125003 261.9375,77.125 C 260.80525,77.125003 260.40347,76.904949 259.9375,76.3125 C 259.84322,76.191916 259.74116,75.621714 259.625,75.28125 z M 288.96875,75.28125 C 289.02083,75.302083 289.14583,75.34375 289.15625,75.34375 C 291.41513,75.840223 292.77176,76.597703 292.59375,76.4375 C 292.86364,76.680414 292.78125,76.621346 292.78125,76.625 C 292.78125,76.723589 292.91014,76.596273 292.625,76.84375 C 292.51743,76.936834 292.15892,77.125003 291.28125,77.125 C 290.149,77.125003 289.74722,76.904949 289.28125,76.3125 C 289.18698,76.191922 289.08491,75.621718 288.96875,75.28125 z " />
      <text
         transform="scale(1,-1)"
         xml:space="preserve"
         style="font-size:40.61520767px;font-style:normal;font-variant:normal;font-weight:bold;font-stretch:normal;text-align:center;line-height:100%;writing-mode:lr-tb;text-anchor:middle;fill:url(#linearGradient3197);fill-opacity:1;stroke:none;stroke-width:1px;stroke-linecap:butt;stroke-linejoin:miter;stroke-opacity:1;font-family:Arial Black"
         x="493.14758"
         y="-93.729156"
         id="text3191"
         sodipodi:linespacing="100%"><tspan
           sodipodi:role="line"
           id="tspan3193"
           x="493.14759"
           y="-93.729156"
           style="fill:url(#linearGradient3197);fill-opacity:1">SSH sobre Federacin</tspan></text>
    </g>
  </g>
</svg>
